<?xml version="1.0" encoding="utf-8"?>
<!-- Generator: Adobe Illustrator 24.3.0, SVG Export Plug-In . SVG Version: 6.00 Build 0)  -->
<svg version="1.1" id="b026b94e-6321-44cd-a420-08eb02e66e9d"
	 xmlns="http://www.w3.org/2000/svg" xmlns:xlink="http://www.w3.org/1999/xlink" x="0px" y="0px" viewBox="0 0 1290.4 844"
	 style="enable-background:new 0 0 1290.4 844;" xml:space="preserve">
<style type="text/css">
	.st0{fill:#45CA8C;}
	.st1{fill:#3F3D56;}
	.st2{fill:#FFB8B8;}
	.st3{fill:#2F2E41;}
	.st4{fill:#E6E6E6;}
	.st5{fill:#FFFFFF;}
	.st6{fill:#6C63FF;}
	.st7{fill:#FF6584;}
	.st8{opacity:0.2;enable-background:new    ;}
	.st9{fill:#CCCCCC;}
	.st10{fill:#F2F2F2;}
</style>
<path class="st0" d="M1168.4,795.1c-4.5,16.8-20.1,27.1-20.1,27.1s-8.2-16.8-3.6-33.6s20.1-27.1,20.1-27.1
	S1172.9,778.4,1168.4,795.1z"/>
<path class="st1" d="M1157.8,823.4c-3.2,0-6.5-0.2-9.7-0.8l-1.1-0.2l0.4-1.1c0.3-0.7,6.4-18.1,21.6-26.9s33.3-5.3,34.1-5.1l1.1,0.2
	l-0.4,1.1c-0.3,0.7-6.4,18.1-21.6,26.9l0,0C1173.8,822.3,1164.5,823.4,1157.8,823.4z M1149.6,820.8c4.2,0.6,19.1,2,31.5-5.1l0,0
	c12.4-7.1,18.7-20.7,20.3-24.7c-4.2-0.6-19.1-2-31.5,5.1C1157.5,803.3,1151.3,816.8,1149.6,820.8L1149.6,820.8z"/>
<path class="st2" d="M502.2,804.1c-8.7,1.6-7.1,4.7-7.1,4.7l2.8,5.5l-7.1-37.9l16.6-0.4l4.7,34.3C509.6,809,506.7,803.3,502.2,804.1
	z"/>
<path class="st3" d="M491.2,807.2l3.8-1.5c0,0-1.6-3.2,7.1-4.7c3.7-0.7,7.4,0,10.6,1.9l3.2,17.4c0,0,15,23.7-3.9,23.7
	s-19.7-5.5-19.7-5.5v-6.3c0,0-4.7,2.4-5.5-3.9s4.7-19.7,4.7-19.7L491.2,807.2z"/>
<path class="st2" d="M389.3,804.1c8.7,1.6,7.1,4.7,7.1,4.7l-2.8,5.5l7.1-33.9l-16.6-4.3l-4.7,34.3
	C381.9,809,384.8,803.3,389.3,804.1z"/>
<circle class="st2" cx="469" cy="395.8" r="24.1"/>
<path class="st2" d="M458,413.1c0,0,3.9,17.4-10.3,23.7s46.6,7.9,46.6,7.9s-15-16.6-11-33.9L458,413.1z"/>
<path class="st0" d="M452.5,433.7l-30.8,6.3l7.1,46.6c0,0,9.5,21.3,3.9,30c-5.5,8.7,1.6,11.8,1.6,11.8l71,3.9c0,0,7.9-3.9,6.3-7.9
	s-0.4-34.3-0.4-34.3s0-3.2,2-13l-0.4-32l-21.1-3.6C491.8,441.5,480.1,446.3,452.5,433.7z"/>
<path class="st2" d="M406.7,469.2l-15,48.9c-0.9,3.5-0.3,7.2,1.6,10.3c2.6,4.5,22.7,33.8,30.3,44.8c1.1,1.6,3.3,2,4.9,0.9
	c0.3-0.2,0.6-0.5,0.9-0.9l9.7-14c0,0,9.5,5.5,11.8,3.2c0.9-0.9-1-2.7-3.7-4.5c-6.1-4.2-13.2-6.7-20.6-7.3h-0.1l-16.6-29.2l16.6-41
	L406.7,469.2z"/>
<path class="st0" d="M428,442.3l-2.8-3.1l-3.5,0.7c0,0-7.1,2.4-11,13.4s-16.6,35.5-16.6,35.5l23.7,14.2l15-32.4L428,442.3z"/>
<path class="st2" d="M531,473.5l16.2,47.7c0.9,3.5,0.3,7.2-1.6,10.3c-2.6,4.5-22.7,33.8-30.3,44.8c-1.1,1.6-3.3,2-4.9,0.9
	c-0.3-0.2-0.6-0.5-0.9-0.9l-9.7-14c0,0-9.5,5.5-11.8,3.2c-0.9-0.9,1-2.7,3.7-4.5c6.1-4.2,13.2-6.7,20.6-7.3h0.1l16.6-29.2l-16.6-41
	L531,473.5z"/>
<path class="st0" d="M508.5,447.9l2.8-3.1l3.5,0.7c0,0,7.1,2.4,11,13.4s17.8,35.9,17.8,35.9l-23.7,10.3l-13.4-30L508.5,447.9z"/>
<path class="st3" d="M468.8,365c0,0-24.7-4.4-29.1,17.6c-1.1,5.1-1.8,10.3-2.1,15.5c-0.7,12.8-4.2,25.2-10.3,36.5l0,0l39.7,11.5
	c0,0-10.6-16.7-8.8-23.8c0.3-1.8,0.3-3.6-0.1-5.3c-9.9-6.1-13-19.2-6.9-29.1s19.2-13,29.1-6.9s13,19.2,6.9,29.1
	c-2.7,4.3-6.8,7.6-11.7,9.1c-3,6.4-4.6,13.4-0.6,18.1c5,6.2,11,11.5,17.6,15.9c0,0-4.4-21.2,2.6-33.5S495.3,366.7,468.8,365z"/>
<polygon class="st3" points="490.7,393.2 449.4,395.7 448.2,376.3 484.2,375 "/>
<path class="st3" d="M400.3,807.2l-3.8-1.5c0,0,1.6-3.2-7.1-4.7c-3.7-0.7-7.4,0-10.6,1.9l-3.2,17.4c0,0-15,23.7,3.9,23.7
	s19.7-5.5,19.7-5.5v-6.3c0,0,4.7,2.4,5.5-3.9s-4.7-19.7-4.7-19.7L400.3,807.2z"/>
<path class="st4" d="M545.3,290.2c0,4.1-3.3,7.5-7.4,7.5h-327c-4.1,0-7.5-3.4-7.4-7.5l0,0V66.8c0-4.1,3.3-7.5,7.4-7.5l0,0h327
	c4.1,0,7.5,3.4,7.4,7.5l0,0l0,0V290.2z"/>
<path class="st5" d="M541.4,286.6c0,4-3.3,7.3-7.3,7.3l0,0H214.7c-4,0-7.3-3.3-7.3-7.3v-216c0-4,3.3-7.3,7.3-7.3l0,0h319.5
	c4,0,7.2,3.3,7.2,7.3V286.6z"/>
<path id="b9c54412-061c-4155-b289-fb4c23e4a64e" class="st4" d="M224.6,72.7h300.2c2.4,0,4.3,1.9,4.3,4.3v202.3
	c0,2.4-1.9,4.3-4.3,4.3H224.6c-2.4,0-4.3-1.9-4.3-4.3l0,0V77C220.2,74.6,222.2,72.7,224.6,72.7L224.6,72.7z"/>
<path class="st5" d="M228.4,77.6h292.2c2.4,0,4.3,1.9,4.3,4.3v191.5c0,2.4-1.9,4.3-4.3,4.3H228.4c-2.4,0-4.3-1.9-4.3-4.3l0,0V81.9
	C224,79.5,226,77.6,228.4,77.6L228.4,77.6z"/>
<path class="st1" d="M434.7,210.6c-1.2,0-2.3-0.2-3.3-0.7c-0.2-0.1-0.5-0.2-0.7-0.4l-21.2-14.9l0,0c-2.2-1.5-3.5-4-3.5-6.7v-20.4
	c0-2.7,1.3-5.2,3.5-6.7l21.2-14.9c0.2-0.2,0.5-0.3,0.7-0.4c4.1-1.8,9,0,10.8,4.2c0.5,1.1,0.7,2.2,0.7,3.3v49.5
	C442.9,206.9,439.2,210.6,434.7,210.6L434.7,210.6L434.7,210.6z"/>
<path class="st1" d="M387.2,214.6H328c-12.1,0-21.9-7.8-21.9-17.5v-39c0-9.6,9.8-17.5,21.9-17.5h59.4c12,0,21.7,7.8,21.7,17.3v39.2
	C409,206.8,399.2,214.6,387.2,214.6z"/>
<circle class="st4" cx="492.7" cy="247.7" r="17.6"/>
<path class="st5" d="M501.8,247.4l-14-8.1c-0.2-0.1-0.4,0-0.5,0.1c0,0.1,0,0.1,0,0.2v16.2c0,0.2,0.2,0.4,0.4,0.4c0.1,0,0.1,0,0.2,0
	l14-8.1c0.2-0.1,0.2-0.3,0.1-0.5C501.9,247.5,501.9,247.4,501.8,247.4l-14-8.1c-0.2-0.1-0.4,0-0.5,0.1c0,0.1,0,0.1,0,0.2v16.2
	c0,0.2,0.2,0.4,0.4,0.4c0.1,0,0.1,0,0.2,0l14-8.1c0.2-0.1,0.2-0.3,0.1-0.5C501.9,247.5,501.9,247.4,501.8,247.4z"/>
<path class="st4" d="M469.8,317c0,4.1-3.3,7.5-7.4,7.5h-327c-4.1,0-7.5-3.4-7.4-7.5l0,0V93.6c0-4.1,3.3-7.5,7.4-7.5h327
	c4.1,0,7.5,3.4,7.4,7.5l0,0l0,0V317z"/>
<path class="st5" d="M465.9,313.3c0,4-3.3,7.3-7.3,7.3H139.2c-4,0-7.3-3.3-7.3-7.3v-216c0-4,3.3-7.3,7.3-7.3l0,0h319.5
	c4,0,7.2,3.3,7.2,7.3L465.9,313.3L465.9,313.3z"/>
<path id="a7242049-80b4-49e1-bd08-67354734c824" class="st4" d="M149.1,99.5h300.2c2.4,0,4.3,1.9,4.3,4.3v202.3
	c0,2.4-1.9,4.3-4.3,4.3H149.1c-2.4,0-4.3-1.9-4.3-4.3l0,0V103.8C144.7,101.4,146.7,99.5,149.1,99.5L149.1,99.5L149.1,99.5z"/>
<path class="st5" d="M152.9,104.3h292.2c2.4,0,4.3,1.9,4.3,4.3v191.5c0,2.4-1.9,4.3-4.3,4.3H152.9c-2.4,0-4.3-1.9-4.3-4.3l0,0V108.7
	C148.5,106.3,150.5,104.3,152.9,104.3L152.9,104.3z"/>
<path class="st1" d="M359.2,237.4c-1.2,0-2.3-0.2-3.3-0.7c-0.2-0.1-0.5-0.2-0.7-0.4L334,221.4l0,0c-2.2-1.5-3.5-4-3.5-6.7v-20.4
	c0-2.7,1.3-5.2,3.5-6.7l21.2-14.9c0.2-0.2,0.5-0.3,0.7-0.4c4.1-1.8,9,0,10.8,4.2c0.5,1.1,0.7,2.2,0.7,3.3v49.5
	C367.4,233.7,363.7,237.4,359.2,237.4L359.2,237.4L359.2,237.4z"/>
<path class="st1" d="M311.7,241.4h-59.2c-12.1,0-21.9-7.8-21.9-17.5v-39c0-9.6,9.8-17.5,21.9-17.5h59.4c12,0,21.7,7.8,21.7,17.3
	v39.2C333.5,233.6,323.7,241.4,311.7,241.4z"/>
<circle class="st4" cx="417.2" cy="274.5" r="17.6"/>
<path class="st5" d="M426.3,274.2l-14-8.1c-0.2-0.1-0.4,0-0.5,0.1c0,0.1,0,0.1,0,0.2v16.2c0,0.2,0.2,0.4,0.4,0.4c0.1,0,0.1,0,0.2,0
	l14-8.1c0.2-0.1,0.2-0.3,0.1-0.5C426.4,274.3,426.4,274.2,426.3,274.2l-14-8.1c-0.2-0.1-0.4,0-0.5,0.1c0,0.1,0,0.1,0,0.2v16.2
	c0,0.2,0.2,0.4,0.4,0.4c0.1,0,0.1,0,0.2,0l14-8.1c0.2-0.1,0.2-0.3,0.1-0.5C426.4,274.3,426.4,274.2,426.3,274.2z"/>
<path class="st4" d="M395.8,347.7c0,4.1-3.3,7.5-7.4,7.5h-327c-4.1,0-7.5-3.4-7.4-7.5l0,0V124.3c0-4.1,3.3-7.5,7.4-7.5l0,0h327
	c4.1,0,7.5,3.4,7.4,7.5l0,0l0,0V347.7z"/>
<path class="st5" d="M391.9,344c0,4-3.3,7.3-7.3,7.3H65.2c-4,0-7.3-3.3-7.3-7.3V128c0-4,3.3-7.3,7.3-7.3l0,0h319.5
	c4,0,7.2,3.3,7.2,7.3L391.9,344L391.9,344z"/>
<path id="b7a050eb-0cb2-44a8-b642-35d340850eff" class="st4" d="M75,130.2h300.2c2.4,0,4.3,1.9,4.3,4.3v202.3c0,2.4-1.9,4.3-4.3,4.3
	H75c-2.4,0-4.3-1.9-4.3-4.3V134.5C70.7,132.1,72.6,130.2,75,130.2L75,130.2L75,130.2z"/>
<path class="st5" d="M78.8,135H371c2.4,0,4.3,1.9,4.3,4.3v191.5c0,2.4-1.9,4.3-4.3,4.3H78.8c-2.4,0-4.3-1.9-4.3-4.3V139.3
	C74.5,137,76.4,135,78.8,135z"/>
<path class="st0" d="M285.2,268.1c-1.2,0-2.3-0.2-3.3-0.7c-0.2-0.1-0.5-0.2-0.7-0.4l-21.3-15l0,0c-2.2-1.5-3.5-4-3.5-6.7v-20.4
	c0-2.7,1.3-5.2,3.5-6.7l21.2-14.9c0.2-0.2,0.5-0.3,0.7-0.4c4.1-1.8,9,0,10.8,4.2c0.5,1.1,0.7,2.2,0.7,3.3v49.5
	C293.4,264.4,289.7,268,285.2,268.1L285.2,268.1L285.2,268.1z"/>
<path class="st0" d="M237.6,272.1h-59.2c-12.1,0-21.9-7.8-21.9-17.5v-39c0-9.6,9.8-17.5,21.9-17.5h59.4c12,0,21.7,7.8,21.7,17.3
	v39.2C259.5,264.2,249.7,272,237.6,272.1z"/>
<circle class="st1" cx="343.1" cy="305.2" r="17.6"/>
<path class="st5" d="M352.3,304.9l-14-8.1c-0.2-0.1-0.4,0-0.5,0.1c0,0.1,0,0.1,0,0.2v16.2c0,0.2,0.2,0.4,0.4,0.4c0.1,0,0.1,0,0.2,0
	l14-8.1c0.2-0.1,0.2-0.3,0.1-0.5C352.4,305,352.3,304.9,352.3,304.9l-14-8.1c-0.2-0.1-0.4,0-0.5,0.1c0,0.1,0,0.1,0,0.2v16.2
	c0,0.2,0.2,0.4,0.4,0.4c0.1,0,0.1,0,0.2,0l14-8.1c0.2-0.1,0.2-0.3,0.1-0.5C352.4,305,352.3,304.9,352.3,304.9z"/>
<rect x="192.8" y="821.4" class="st3" width="969" height="2"/>
<path class="st3" d="M291.3,801.9c-42,0-76-34-76-76s34-76,76-76s76,34,76,76C367.2,767.8,333.2,801.8,291.3,801.9z M291.3,651.9
	c-40.9,0-74,33.1-74,74s33.1,74,74,74s74-33.1,74-74C365.2,685,332.1,651.9,291.3,651.9L291.3,651.9z"/>
<path class="st3" d="M291.3,634.4c-25.9,0-47-17.2-47-38.3s21.1-38.3,47-38.3s47,17.2,47,38.3S317.2,634.4,291.3,634.4z
	 M291.3,559.5c-24.8,0-45,16.4-45,36.6c0,20.2,20.2,36.6,45,36.6s45-16.4,45-36.6S316.1,559.5,291.3,559.5z"/>
<path class="st3" d="M269.3,616.9c-5.6,0-10-8.3-10-19s4.4-19,10-19s10,8.3,10,19S274.9,616.9,269.3,616.9z M269.3,580.9
	c-4.3,0-8,7.8-8,17s3.7,17,8,17s8-7.8,8-17S273.6,580.9,269.3,580.9z"/>
<path class="st3" d="M313.3,616.9c-5.6,0-10-8.3-10-19s4.4-19,10-19s10,8.3,10,19S318.9,616.9,313.3,616.9z M313.3,580.9
	c-4.3,0-8,7.8-8,17s3.7,17,8,17s8-7.8,8-17S317.6,580.9,313.3,580.9z"/>
<path class="st3" d="M389.3,706.9c-22.1,0-40-17.9-40-40s17.9-40,40-40s40,17.9,40,40C429.2,689,411.3,706.9,389.3,706.9z
	 M389.3,628.9c-21,0-38,17-38,38s17,38,38,38s38-17,38-38l0,0C427.2,645.9,410.2,628.9,389.3,628.9z"/>
<path class="st3" d="M194.3,706.9c-22.1,0-40-17.9-40-40s17.9-40,40-40s40,17.9,40,40C234.2,689,216.3,706.9,194.3,706.9z
	 M194.3,628.9c-21,0-38,17-38,38s17,38,38,38s38-17,38-38l0,0C232.2,645.9,215.2,628.9,194.3,628.9z"/>
<path class="st3" d="M291.3,821.9c-14.3,0-25.5-4.8-25.5-11s11.2-11,25.5-11s25.5,4.8,25.5,11S305.6,821.9,291.3,821.9z
	 M291.3,801.9c-14.1,0-23.5,4.7-23.5,9s9.4,9,23.5,9s23.5-4.7,23.5-9S305.3,801.9,291.3,801.9z"/>
<path class="st3" d="M630.3,801.9c-42,0-76-34-76-76s34-76,76-76s76,34,76,76C706.2,767.8,672.2,801.8,630.3,801.9z M630.3,651.9
	c-40.9,0-74,33.1-74,74s33.1,74,74,74s74-33.1,74-74C704.2,685,671.1,651.9,630.3,651.9L630.3,651.9z"/>
<path class="st3" d="M630.3,651.9c-26,0-47-21-47-47s21-47,47-47s47,21,47,47C677.2,630.8,656.2,651.9,630.3,651.9z M630.3,559.9
	c-24.9,0-45,20.1-45,45s20.1,45,45,45s45-20.1,45-45l0,0C675.2,580,655.1,559.9,630.3,559.9z"/>
<path class="st3" d="M608.3,616.9c-5.6,0-10-8.3-10-19s4.4-19,10-19s10,8.3,10,19S613.9,616.9,608.3,616.9z M608.3,580.9
	c-4.3,0-8,7.8-8,17s3.7,17,8,17s8-7.8,8-17S612.6,580.9,608.3,580.9z"/>
<path class="st3" d="M652.3,616.9c-5.6,0-10-8.3-10-19s4.4-19,10-19s10,8.3,10,19S657.9,616.9,652.3,616.9z M652.3,580.9
	c-4.3,0-8,7.8-8,17s3.7,17,8,17s8-7.8,8-17S656.6,580.9,652.3,580.9z"/>
<path class="st3" d="M737.3,807.9c-22.1,0-40-17.9-40-40s17.9-40,40-40s40,17.9,40,40C777.2,790,759.3,807.9,737.3,807.9z
	 M737.3,729.9c-21,0-38,17-38,38s17,38,38,38s38-17,38-38C775.2,746.9,758.2,729.9,737.3,729.9z"/>
<path class="st3" d="M516,760.9c-22.1,0.1-40.1-17.7-40.3-39.7c-0.1-22.1,17.7-40.1,39.7-40.3c22.1-0.1,40.1,17.7,40.3,39.7
	c0,0.1,0,0.2,0,0.3C555.8,742.9,538,760.8,516,760.9z M516,682.9c-21-0.1-38.1,16.8-38.2,37.8s16.8,38.1,37.8,38.2
	c21,0.1,38.1-16.8,38.2-37.8c0-0.1,0-0.2,0-0.2C553.8,700,536.9,683,516,682.9L516,682.9z"/>
<path class="st3" d="M630.3,821.9c-14.3,0-25.5-4.8-25.5-11s11.2-11,25.5-11s25.5,4.8,25.5,11S644.6,821.9,630.3,821.9z
	 M630.3,801.9c-14.1,0-23.5,4.7-23.5,9s9.4,9,23.5,9s23.5-4.7,23.5-9S644.3,801.9,630.3,801.9z"/>
<path class="st3" d="M980.3,804.9c-42,0-76-34-76-76s34-76,76-76s76,34,76,76C1056.2,770.8,1022.2,804.8,980.3,804.9z M980.3,654.9
	c-40.9,0-74,33.1-74,74s33.1,74,74,74s74-33.1,74-74C1054.2,688,1021.1,654.9,980.3,654.9L980.3,654.9z"/>
<path class="st3" d="M1020.3,661.9c-26,0-47-21-47-47s21-47,47-47c26,0,47,21,47,47C1067.2,640.8,1046.2,661.9,1020.3,661.9z
	 M1020.3,569.9c-24.9,0-45,20.1-45,45s20.1,45,45,45c24.9,0,45-20.1,45-45l0,0C1065.2,590,1045.1,569.9,1020.3,569.9z"/>
<path class="st3" d="M998.3,644.9c-5.6,0-10-8.3-10-19s4.4-19,10-19s10,8.3,10,19S1003.9,644.9,998.3,644.9z M998.3,608.9
	c-4.3,0-8,7.8-8,17s3.7,17,8,17s8-7.8,8-17S1002.6,608.9,998.3,608.9z"/>
<path class="st3" d="M1042.3,644.9c-5.6,0-10-8.3-10-19s4.4-19,10-19s10,8.3,10,19S1047.9,644.9,1042.3,644.9z M1042.3,608.9
	c-4.3,0-8,7.8-8,17s3.7,17,8,17s8-7.8,8-17S1046.6,608.9,1042.3,608.9z"/>
<path class="st3" d="M1087.3,810.9c-22.1,0-40-17.9-40-40s17.9-40,40-40s40,17.9,40,40C1127.2,793,1109.3,810.9,1087.3,810.9z
	 M1087.3,732.9c-21,0-38,17-38,38s17,38,38,38s38-17,38-38l0,0C1125.2,749.9,1108.2,732.9,1087.3,732.9z"/>
<path class="st3" d="M949.8,820.9c-14.3,0-25.5-4.8-25.5-11s11.2-11,25.5-11s25.5,4.8,25.5,11S964.1,820.9,949.8,820.9z
	 M949.8,800.9c-14.1,0-23.5,4.7-23.5,9s9.4,9,23.5,9s23.5-4.7,23.5-9S963.8,800.9,949.8,800.9z"/>
<path class="st6" d="M516.3,604.9c-31.3-33.2-100.1-20.2-100.8-20l-0.4-2c0.7-0.1,70.6-13.3,102.7,20.6L516.3,604.9z"/>
<path class="st6" d="M524.3,613.9c-5.1-3.2-12.3-6.6-18-7.7l9.6-3.1l5.4-8.5C521,600.3,522.5,608.1,524.3,613.9z"/>
<path class="st0" d="M830.3,658.9c-31.3-33.2-100.1-20.2-100.8-20l-0.4-2c0.7-0.1,70.6-13.3,102.7,20.6L830.3,658.9z"/>
<path class="st0" d="M838.3,667.9c-5.1-3.2-12.3-6.6-18-7.7l9.6-3.1l5.4-8.5C835,654.3,836.5,662.1,838.3,667.9z"/>
<path class="st3" d="M434.3,526l-39.5,165.7L372,773.8l51.3,16.6c0,0,49.7-146,46.6-176.8l-1.6,176.8l55.2-3.2
	c0,0,13.4-232.8-18.1-259.6L434.3,526z"/>
<path class="st4" d="M1056.3,326.8c-0.9-0.3-1.9,0.2-2.2,1.1l-43.6,115.8c-0.3,0.9,0.1,2,0.9,2.3l150.6,56.6
	c0.9,0.3,1.9-0.2,2.2-1.1l43.6-115.8c0.3-0.9-0.1-2-0.9-2.3L1056.3,326.8z"/>
<path class="st5" d="M1194.7,390.7l-31,82.3c-0.4,1.1-1.6,1.7-2.7,1.3l-130.4-49.1c-0.1,0-0.2-0.1-0.3-0.1c-0.9-0.5-1.3-1.6-0.9-2.7
	l31-82.3c0.4-1.1,1.6-1.7,2.7-1.3l130.4,49.1C1194.6,388.3,1195.1,389.5,1194.7,390.7z"/>
<ellipse transform="matrix(0.352 -0.936 0.936 0.352 367.337 1347.8577)" class="st7" cx="1157.1" cy="408.6" rx="8" ry="7.5"/>
<ellipse transform="matrix(0.352 -0.936 0.936 0.352 374.494 1205.2147)" class="st1" cx="1057.7" cy="332.1" rx="2.6" ry="2.5"/>
<ellipse transform="matrix(0.352 -0.936 0.936 0.352 417.2804 1375.6145)" class="st1" cx="1202.1" cy="386.4" rx="2.6" ry="2.5"/>
<ellipse transform="matrix(0.352 -0.936 0.936 0.352 243.7834 1237.9326)" class="st1" cx="1016" cy="442.9" rx="2.6" ry="2.5"/>
<ellipse transform="matrix(0.352 -0.936 0.936 0.352 286.4871 1408.4705)" class="st1" cx="1160.5" cy="497.3" rx="2.6" ry="2.5"/>
<ellipse transform="matrix(0.352 -0.936 0.936 0.352 324.1591 1278.0865)" class="st0" cx="1085.1" cy="404.9" rx="9.6" ry="9"/>
<polygon class="st1" points="1075.7,432.3 1074,431.7 1085.5,403.5 "/>
<polygon class="st1" points="1083.6,408.9 1086.5,406.9 1083.3,409.6 1083.3,409.2 "/>
<polygon class="st1" points="1082.4,411.6 1081.6,408.2 1082.2,412.3 1082.5,412 "/>
<ellipse transform="matrix(0.352 -0.936 0.936 0.352 346.961 1369.0759)" class="st0" cx="1162.3" cy="434" rx="9.6" ry="9"/>
<polygon class="st1" points="1152.9,461.3 1151.1,460.7 1162.6,432.5 "/>
<polygon class="st1" points="1160.8,437.9 1163.6,435.9 1160.5,438.6 1160.4,438.2 "/>
<polygon class="st1" points="1159.5,440.6 1158.7,437.2 1159.3,441.3 1159.6,441 "/>
<ellipse transform="matrix(0.352 -0.936 0.936 0.352 340.6251 1304.4933)" class="st0" cx="1112.4" cy="406.2" rx="14.2" ry="13.3"/>
<polygon class="st1" points="1098.6,446.7 1096,445.7 1113,404.1 "/>
<polygon class="st1" points="1110.2,412.2 1114.5,409.2 1109.8,413.2 1109.7,412.5 "/>
<polygon class="st1" points="1108.4,416.1 1107.2,411.1 1108,417.2 1108.6,416.7 "/>
<ellipse transform="matrix(0.352 -0.936 0.936 0.352 355.5891 1338.7042)" class="st0" cx="1144.6" cy="412.5" rx="14.2" ry="13.3"/>
<polygon class="st1" points="1130.8,453 1128.2,452.1 1145.2,410.4 "/>
<polygon class="st1" points="1142.4,418.5 1146.7,415.5 1142,419.5 1141.9,418.8 "/>
<polygon class="st1" points="1140.6,422.5 1139.4,417.4 1140.2,423.5 1140.8,423 "/>
<ellipse transform="matrix(0.352 -0.936 0.936 0.352 332.3979 1246.0723)" class="st0" cx="1066.1" cy="383" rx="14.2" ry="13.3"/>
<polygon class="st1" points="1052.2,423.5 1049.7,422.5 1066.6,380.9 "/>
<polygon class="st1" points="1063.9,388.9 1068.1,385.9 1063.5,389.9 1063.4,389.3 "/>
<polygon class="st1" points="1062,392.9 1060.8,387.8 1061.7,393.9 1062.2,393.5 "/>
<path class="st1" d="M1096.7,450.1l-66.1-24.9c-0.1,0-0.2-0.1-0.3-0.1c-0.9-0.5-1.3-1.6-0.9-2.7l6.6-17.7c6.6,1.2,13.1,3,19.4,5.4
	c23.5,8.8,40.4,23.4,41.7,34.9C1097.4,446.8,1097.3,448.5,1096.7,450.1z"/>
<path class="st1" d="M1165.3,469l-1.5,4c-0.4,1.1-1.6,1.7-2.7,1.3l-73.1-27.5c3-0.9,6.2-1.5,9.3-1.7c10.5-0.7,24.1,1.4,38.1,6.7
	C1147.5,456.4,1157.9,462.5,1165.3,469z"/>
<path class="st4" d="M1130.5,114.7c-0.2-0.2-0.4-0.3-0.7-0.4L972,71.1c-0.9-0.2-1.9,0.3-2.2,1.2l-38.9,115.6
	c-0.3,0.9,0.2,1.9,1.1,2.1l157.7,43.2c0.9,0.2,1.9-0.3,2.2-1.2l38.9-115.6c0.2-0.4,0.1-0.9-0.1-1.3
	C1130.7,115,1130.6,114.9,1130.5,114.7z"/>
<path class="st5" d="M1117.6,122.3l-27.6,82.2c-0.4,1.1-1.6,1.8-2.7,1.5l0,0l-136.6-37.4c-0.1,0-0.2-0.1-0.3-0.1
	c-0.9-0.4-1.4-1.5-1-2.5L977,83.7c0.4-1.1,1.6-1.8,2.7-1.5l0,0l136.6,37.4C1117.4,120,1118,121.1,1117.6,122.3L1117.6,122.3z"/>
<ellipse transform="matrix(0.7071 -0.7071 0.7071 0.7071 207.2359 743.9913)" class="st7" cx="1001.7" cy="121.8" rx="19.4" ry="18.1"/>
<path class="st1" d="M1038.7,193l-87.2-23.9c-0.1,0-0.2-0.1-0.3-0.1l65.8-61.6c1.3-1.2,3.2-1.2,4.3,0c0.4,0.4,0.6,0.9,0.7,1.4
	l11.2,56.5l0.5,2.7L1038.7,193z"/>
<polygon class="st8" points="1038.7,193 1008.9,184.8 1030.8,167.2 1032.4,165.9 1033.2,165.3 1033.7,168 "/>
<path class="st1" d="M1087.2,206.3l-75.4-20.7l21.9-17.7l1.6-1.3l28.5-23c1.9-1.5,4.9-0.8,5.8,1.2c0.1,0.1,0.1,0.3,0.2,0.4
	L1087.2,206.3z"/>
<ellipse transform="matrix(0.7071 -0.7071 0.7071 0.7071 231.3689 710.7997)" class="st1" cx="973.7" cy="76.1" rx="2.6" ry="2.5"/>
<ellipse transform="matrix(0.7071 -0.7071 0.7071 0.7071 246.371 829.942)" class="st1" cx="1125" cy="117.6" rx="2.6" ry="2.5"/>
<ellipse transform="matrix(0.7071 -0.7071 0.7071 0.7071 142.2209 716.9217)" class="st1" cx="936.5" cy="186.8" rx="2.6" ry="2.5"/>
<ellipse transform="matrix(0.7071 -0.7071 0.7071 0.7071 157.1816 835.964)" class="st1" cx="1087.7" cy="228.2" rx="2.6" ry="2.5"/>
<path class="st4" d="M797.6,188c0.8-0.5,1.1-1.5,0.6-2.4L734.6,80c-0.5-0.8-1.6-1.2-2.4-0.7L590.9,158c-0.8,0.5-1.1,1.5-0.6,2.4
	L653.9,266c0.5,0.8,1.6,1.2,2.4,0.7l0,0L797.6,188z"/>
<path class="st5" d="M730.1,93.1l45.2,75c0.6,1,0.3,2.3-0.7,2.9l-122.4,68.1c-0.1,0-0.2,0.1-0.3,0.1c-1,0.4-2.1-0.1-2.7-1l-45.2-75
	c-0.6-1-0.3-2.3,0.7-2.9l122.4-68.1C728.1,91.7,729.5,92.1,730.1,93.1z"/>
<path class="st1" d="M768.8,157.5l6.4,10.7c0.6,1,0.3,2.3-0.7,2.9l-122.4,68.1c-0.1,0-0.2,0.1-0.3,0.1c-1,0.4-2.1-0.1-2.7-1
	l-6.4-10.7L768.8,157.5z"/>
<polygon class="st9" points="700.8,203.9 720.2,193 721.6,195.3 702.2,206.2 "/>
<polygon class="st9" points="656,228.8 675.5,217.9 676.8,220.3 657.4,231.1 "/>
<polygon class="st9" points="745.5,178.9 765,168.1 766.4,170.4 746.9,181.3 "/>
<ellipse transform="matrix(0.7071 -0.7071 0.7071 0.7071 61.2316 468.2792)" class="st1" cx="595.9" cy="160.2" rx="2.5" ry="2.6"/>
<ellipse transform="matrix(0.7071 -0.7071 0.7071 0.7071 154.3003 542.0591)" class="st1" cx="731.5" cy="84.8" rx="2.5" ry="2.6"/>
<ellipse transform="matrix(0.7071 -0.7071 0.7071 0.7071 7.6288 540.9514)" class="st1" cx="656.8" cy="261.3" rx="2.5" ry="2.6"/>
<ellipse transform="matrix(0.7071 -0.7071 0.7071 0.7071 100.6268 614.702)" class="st1" cx="792.3" cy="185.9" rx="2.5" ry="2.6"/>
<polygon class="st1" points="752.3,171 741.5,177 740.4,175.2 751.3,169.2 "/>
<path class="st0" d="M662.5,219.1l2.6-0.7l84.9-47.2l-0.4-2.3c-0.6-3.9-2.2-7.7-4.8-10.8c-1.9-2.4-4.3-4.4-7.1-4.3l-19.5-24l-47,26
	l-9,25.3c0,0-8.7,4.6-9.7,13.2c-0.3,3.2,0.3,6.4,1.8,9.4l1.7,3.2L662.5,219.1z"/>
<ellipse transform="matrix(0.7071 -0.7071 0.7071 0.7071 52.0805 542.4009)" class="st1" cx="680.8" cy="208.3" rx="11.9" ry="12.8"/>
<ellipse transform="matrix(0.7071 -0.7071 0.7071 0.7071 52.0805 542.4009)" class="st9" cx="680.8" cy="208.3" rx="6.3" ry="6.7"/>
<ellipse transform="matrix(0.7071 -0.7071 0.7071 0.7071 87.5277 570.5734)" class="st1" cx="732.5" cy="179.6" rx="11.9" ry="12.8"/>
<ellipse transform="matrix(0.7071 -0.7071 0.7071 0.7071 87.5277 570.5734)" class="st9" cx="732.5" cy="179.6" rx="6.3" ry="6.7"/>
<polygon class="st5" points="668.4,175.4 693.7,161.3 696.8,159.6 702,156.7 701.8,156.3 698.9,151.5 695.7,146.2 692.2,148.1 
	689.1,149.8 683.6,152.9 680.6,154.6 674.2,158.1 "/>
<polygon class="st5" points="706.2,154.4 719.6,147 717.9,144.2 715,139.5 713.2,136.4 711.3,137.5 708.2,139.2 699.8,143.9 "/>
<polygon class="st1" points="708.8,168 707.1,168.9 705.1,165.5 706.8,164.6 "/>
<polygon class="st1" points="677.1,174.6 678.1,176.4 674.9,178.2 673.8,176.5 "/>
<path class="st1" d="M676.3,176.1l-0.2,0.1c-2,1.1-4.6,0.3-5.8-1.7l0,0c-1.2-2.1-0.6-4.6,1.3-5.7l0.2-0.1l0,0L676.3,176.1
	L676.3,176.1z"/>
<path class="st1" d="M656.1,207.1c3.3-1.4,4.6-5.2,3-8.5c-1.2-2.6-3.8-4.2-6.6-4.1c-0.3,3.2,0.3,6.4,1.8,9.4L656.1,207.1z"/>
<polygon class="st10" points="689.1,149.8 701.8,156.3 698.9,151.5 692.2,148.1 "/>
<polygon class="st10" points="708.2,139.2 717.9,144.2 715,139.5 711.3,137.5 "/>
<polygon class="st10" points="680.6,154.6 693.7,161.3 696.8,159.6 683.6,152.9 "/>
<ellipse class="st0" cx="742" cy="256.8" rx="7.6" ry="8.1"/>
<path class="st8" d="M745.2,249.4c3.1,3,3.3,8.2,0.5,11.5c-2.2,2.6-5.8,3.4-8.8,1.9c3.1,3,7.9,2.8,10.7-0.5s2.6-8.5-0.5-11.5
	C746.5,250.2,745.9,249.8,745.2,249.4z"/>
<ellipse class="st1" cx="937.4" cy="265.6" rx="18.7" ry="8.1"/>
<path class="st8" d="M937.4,257.5c-0.6,0-1.3,0-1.9,0c9.4,0.4,16.8,3.9,16.8,8.1s-7.4,7.7-16.8,8.1c0.6,0,1.3,0,1.9,0
	c10.3,0,18.7-3.6,18.7-8.1C956.1,261.1,947.7,257.5,937.4,257.5z"/>
<path class="st1" d="M961.8,265.6H868v-10.9c0-1.1-0.9-2-1.9-2h-51.9c-1,0-1.9,0.9-1.9,2v10.9h-54.5v-6.8c0-1.1-0.9-2-1.9-2H728
	c-1,0-1.9,0.9-1.9,2v6.8h-7.6c-1,0-1.9,0.9-1.9,2l0,0v133.7c0,1.1,0.8,2,1.9,2l0,0h243.2c1,0,1.9-0.9,1.9-2l0,0V267.7
	C963.7,266.5,962.8,265.6,961.8,265.6L961.8,265.6z"/>
<path class="st8" d="M961.8,393.4H718.5c-1,0-1.9-0.9-1.9-2l0,0v9.5c0,1.1,0.8,2,1.9,2l0,0h243.2c1,0,1.9-0.9,1.9-2l0,0v-9.5
	C963.7,392.5,962.8,393.4,961.8,393.4L961.8,393.4z"/>
<rect x="716.6" y="328" class="st8" width="247" height="25.8"/>
<rect x="716.6" y="315.2" class="st8" width="247" height="25.8"/>
<rect x="716.6" y="321.3" class="st0" width="247" height="25.8"/>
<ellipse class="st0" cx="840.1" cy="334.2" rx="48.1" ry="51.6"/>
<path class="st8" d="M877.2,301.3c13.5,24.6,5.8,56.2-17.1,70.6c-20.4,12.8-46.4,7.9-61.5-11.6c13.5,24.6,43,32.8,65.9,18.4
	s30.6-46,17.2-70.6C880.4,305.7,878.9,303.4,877.2,301.3z"/>
<ellipse class="st1" cx="840.1" cy="334.2" rx="35.8" ry="38.4"/>
<path class="st5" d="M868,334.2c0,4.1-0.8,8.1-2.3,11.8c-0.8,2-1.8,3.9-3,5.7c-9,13.4-26.4,16.4-38.9,6.8s-15.3-28.3-6.3-41.7
	c1.8-2.6,3.9-4.9,6.3-6.8c1.6-1.3,3.4-2.4,5.3-3.2c14.1-6.5,30.5,0.5,36.6,15.7C867.3,326.1,868,330.1,868,334.2L868,334.2z"/>
<path class="st8" d="M867.7,329.8c-1-7.6-4.8-14.5-10.4-19.2c5,8.3,5.8,18.8,2.1,27.9c-0.8,2-1.8,3.9-3,5.7
	c-9,13.4-26.4,16.4-38.9,6.8c-0.3-0.2-0.6-0.5-0.9-0.7c8.3,13.9,25.5,18,38.5,9.1c3-2,5.6-4.7,7.6-7.7c1.2-1.8,2.2-3.7,3-5.7
	C867.8,340.9,868.5,335.3,867.7,329.8L867.7,329.8z"/>
</svg>
