<svg xmlns="http://www.w3.org/2000/svg" viewBox="0 0 713.91 104.24"><defs><style>.cls-1{fill:#011627;}.cls-2{fill:#47d7ac;}</style></defs><title>Asset 2</title><g id="Layer_2" data-name="Layer 2"><g id="Layer_1-2" data-name="Layer 1"><rect class="cls-1" x="83.39" width="20.85" height="20.85"/><polygon class="cls-2" points="0 0 0 104.24 104.24 104.24 104.24 83.39 20.85 83.39 20.85 0 0 0"/><polygon class="cls-2" points="41.7 0 41.7 62.54 104.24 62.54 104.24 41.7 62.54 41.7 62.54 0 41.7 0"/><path class="cls-1" d="M130.3,24.36h12.63l17.63,41.23L178.2,24.36h12.55V79.81H179.63V43.74L164.77,79.81h-8.42L141.42,43.74V79.81H130.3Z"/><path class="cls-1" d="M219,35.08c7.07,0,11.91,3.34,14.53,7V35.8h11.21v44H233.48V73.37c-2.62,3.82-7.62,7.15-14.61,7.15-11.12,0-20-9.13-20-22.88S207.75,35.08,219,35.08Zm2.86,9.78c-6,0-11.6,4.44-11.6,12.78s5.64,13.11,11.6,13.11,11.67-4.61,11.67-13S227.92,44.86,221.81,44.86Z"/><path class="cls-1" d="M272.88,35.08c5.8,0,11.36,2.71,14.38,6.84V21h11.28V79.81H287.26V73.29c-2.62,4.06-7.54,7.23-14.46,7.23-11.2,0-20.09-9.13-20.09-22.88S261.6,35.08,272.88,35.08Zm2.78,9.78c-6,0-11.59,4.44-11.59,12.78s5.64,13.11,11.59,13.11c6.12,0,11.68-4.61,11.68-13S281.78,44.86,275.66,44.86Z"/><path class="cls-1" d="M331.27,24.84h7.78l20.34,45.44,20.34-45.44h7.7v55H380.2v-41l-18.27,41h-5.08L338.5,38.74V79.81h-7.23Z"/><path class="cls-1" d="M417.61,35.56c8.11,0,13.67,4.13,16.21,8.66V36.28h7.31V79.81h-7.31v-8.1c-2.62,4.68-8.26,8.81-16.28,8.81-11.6,0-20.58-9.13-20.58-22.64S405.94,35.56,417.61,35.56ZM419,41.84c-7.94,0-14.69,5.8-14.69,16S411.1,74.17,419,74.17s14.78-6,14.78-16.21C433.82,47.87,427,41.84,419,41.84Z"/><path class="cls-1" d="M460.59,79.81h-7.23V36.28h7.23v7.07c2.46-4.85,7.15-7.87,14.06-7.87V43h-1.91c-6.91,0-12.15,3.1-12.15,13.19Z"/><path class="cls-1" d="M483,21h7.23V55.58L507,36.28h10.09L496.57,58l20.58,21.85H507.3L490.22,60.58V79.81H483Z"/><path class="cls-1" d="M542.72,80.52c-12.39,0-21.52-8.74-21.52-22.56s8.81-22.4,21.52-22.4,20.9,8.9,20.9,20.81a38.92,38.92,0,0,1-.24,4.37h-34.8c.56,8.82,6.76,13.67,14.14,13.67,6.52,0,10.65-3.34,12.24-8h7.78C560.52,74.33,553.53,80.52,542.72,80.52ZM528.66,54.86h27.49c.08-8.5-6.28-13.18-13.74-13.18C535.34,41.68,529.46,46.36,528.66,54.86Z"/><path class="cls-1" d="M574.74,42.23H569.1V36.28h5.64v-11H582v11h11.36v5.95H582V67.89c0,4.29,1.59,5.8,6,5.8h5.32v6.12h-6.51c-7.71,0-12.07-3.18-12.07-11.92Z"/><path class="cls-1" d="M600.87,24.28a4.85,4.85,0,1,1,4.93,4.93A4.85,4.85,0,0,1,600.87,24.28Zm1.19,12h7.23V79.81h-7.23Z"/><path class="cls-1" d="M653.46,55.18c0-8.89-4.85-13.42-12.16-13.42s-12.47,4.6-12.47,14V79.81H621.6V36.28h7.23v6.19c2.86-4.53,8.1-7,14-7,10.09,0,17.8,6.2,17.8,18.67V79.81h-7.15Z"/><path class="cls-1" d="M690.39,35.56c8,0,13.67,4,16.21,8.66V36.28h7.31V80.76c0,12-8,20.5-20.82,20.5-11.44,0-19.62-5.8-21.05-15.1h7.15c1.59,5.25,6.75,8.82,13.9,8.82,7.71,0,13.51-4.92,13.51-14.22V71.63c-2.62,4.68-8.26,8.89-16.21,8.89-11.67,0-20.65-9.13-20.65-22.64S678.72,35.56,690.39,35.56Zm1.43,6.28c-7.94,0-14.69,5.8-14.69,16s6.75,16.29,14.69,16.29,14.78-6,14.78-16.21C706.6,47.87,699.77,41.84,691.82,41.84Z"/></g></g></svg>