<svg width="1387" height="4933" viewBox="0 0 1387 4933" fill="none" xmlns="http://www.w3.org/2000/svg">
<path d="M347.307 -592.448V-557.876H381.881V-592.448H347.307ZM347.307 -592.448V-765.536M347.307 -592.448H520.403M347.307 -592.448V-627.02H312.733V-592.448H347.307ZM347.307 -592.448V-419.361M347.307 -592.448H174.097M347.307 -419.361H520.403M347.307 -419.361V-453.933H485.83V-592.448H520.403M347.307 -419.361H312.619V-557.876H174.097V-592.448M347.307 -419.361V-246.273H520.403M347.307 -419.361H381.881V-280.845H520.403V-246.273M347.307 -419.361H174.097M347.307 -419.361H347.193V-384.675H208.67V-246.273H174.097M520.403 -419.361V-592.448M520.403 -419.361H554.977V-453.933H520.403V-419.361ZM520.403 -419.361H485.83V-384.789H520.403V-419.361ZM520.403 -419.361H693.5M520.403 -419.361V-246.273M520.403 -592.448V-627.02H381.881V-765.536H347.307M520.403 -592.448V-765.536M520.403 -592.448H554.977V-730.964H693.5V-765.536M520.403 -592.448H693.5M520.403 -592.448V-557.876H658.926V-419.361H693.5M520.403 -765.536H485.83V-730.964H520.403V-765.536ZM520.403 -765.536H693.5M520.403 -765.536H347.307M520.403 -765.536V-938.624M520.403 -765.536H554.977V-800.108H520.403V-765.536ZM347.307 -765.536V-800.108H485.83V-938.624H520.403M347.307 -765.536H174.097M347.307 -765.536H347.193V-730.964H208.67V-592.448H174.097M347.307 -765.536V-938.624M347.307 -765.536H312.619V-904.052H174.097V-938.624M693.5 -592.448V-627.02H658.926V-592.448H693.5ZM693.5 -592.448V-419.361M693.5 -592.448V-557.876H728.074V-592.448H693.5ZM693.5 -592.448V-765.536M693.5 -592.448H866.596M693.5 -765.536V-938.624M693.5 -765.536H658.926V-904.052H520.403V-938.624M693.5 -765.536H728.074V-627.02H866.596V-592.448M693.5 -765.536H866.596M693.5 -765.536V-800.108H832.023V-938.624H866.596M693.5 -419.361H866.596M693.5 -419.361V-453.933H832.023V-592.448H866.596M693.5 -419.361V-384.675H554.977V-246.273H520.403M693.5 -419.361V-246.273H866.596M693.5 -419.361H728.074V-280.845H866.596V-246.273M347.307 -1284.91V-1250.34H381.881V-1284.91H347.307ZM347.307 -1284.91V-1458M347.307 -1284.91H520.403M347.307 -1284.91V-1319.48H312.733V-1284.91H347.307ZM347.307 -1284.91V-1111.71M347.307 -1284.91H174.097M347.307 -1111.71H520.403M347.307 -1111.71V-1146.4H485.83V-1284.91H520.403M347.307 -1111.71V-938.624M347.307 -1111.71H381.881V-973.196H520.403V-938.624M347.307 -1111.71V-1111.82H312.619V-1250.34H174.097V-1284.91M347.307 -1111.71H174.097M347.307 -1111.71H347.193V-1077.14H208.67V-938.624H174.097M520.403 -1111.71V-1284.91M520.403 -1111.71H554.977V-1146.28H520.403V-1111.71ZM520.403 -1111.71H485.83V-1077.14H520.403V-1111.71ZM520.403 -1111.71H693.5M520.403 -1111.71V-938.624M520.403 -1284.91V-1319.48H381.881V-1458H347.307M520.403 -1284.91V-1458M520.403 -1284.91H554.977V-1423.31H693.5V-1458M520.403 -1284.91H693.5M520.403 -1284.91V-1250.34H658.926V-1111.82H693.5V-1111.71M520.403 -1458H485.83V-1423.43H520.403V-1458ZM520.403 -1458H693.5M347.307 -1458H174.097M347.307 -1458H347.193V-1423.31H208.67V-1284.91H174.097M693.5 -1284.91V-1319.48H658.926V-1284.91H693.5ZM693.5 -1284.91V-1111.71M693.5 -1284.91V-1250.34H728.074V-1284.91H693.5ZM693.5 -1284.91V-1458M693.5 -1284.91H866.596M693.5 -1458H728.074V-1319.48H866.596V-1284.91M693.5 -1111.71V-1077.14H554.977V-938.624H520.403M693.5 -1111.71H866.596M693.5 -1111.71V-1146.4H832.023V-1284.91H866.596M693.5 -1111.71V-938.624M693.5 -1111.71H728.074V-973.196H866.596V-938.624M347.307 -938.624V-904.052H381.881V-938.624H347.307ZM347.307 -938.624H520.403M347.307 -938.624V-973.196H312.733V-938.624H347.307ZM347.307 -938.624H174.097M520.403 -938.624H693.5M693.5 -938.624V-973.196H658.926V-938.624H693.5ZM693.5 -938.624V-904.052H728.074V-938.624H693.5ZM693.5 -938.624H866.596M1 -592.448V-557.876H35.5738V-592.448H1ZM1 -592.448V-765.536M1 -592.448H174.097M1 -419.361H174.097M1 -419.361V-453.933H139.523V-592.448H174.097M1 -419.361V-246.273H174.097M1 -419.361H35.6875V-280.845H174.097V-246.273M174.097 -419.361V-592.448M174.097 -419.361H208.67V-453.933H174.097V-419.361ZM174.097 -419.361H139.523V-384.789H174.097V-419.361ZM174.097 -419.361V-246.273M174.097 -592.448V-627.02H35.6875V-765.536H1M174.097 -592.448V-765.536M174.097 -765.536H139.523V-730.964H174.097V-765.536ZM174.097 -765.536H1M174.097 -765.536V-938.624M174.097 -765.536H208.67V-800.108H174.097V-765.536ZM1 -765.536V-800.108H139.523V-938.624H174.097M1 -1284.91V-1250.34H35.5738V-1284.91H1ZM1 -1284.91V-1458H35.6875V-1319.48H174.097V-1284.91M1 -1284.91H174.097M1 -1111.71H174.097M1 -1111.71V-1146.4H139.523V-1284.91H174.097M1 -1111.71V-938.624M1 -1111.71H35.6875V-973.196H174.097V-938.624M174.097 -1111.71V-1284.91M174.097 -1111.71H208.67V-1146.28H174.097V-1111.71ZM174.097 -1111.71H139.523V-1077.14H174.097V-1111.71ZM174.097 -1111.71V-938.624M174.097 -1284.91V-1458M174.097 -1458H139.523V-1423.43H174.097V-1458ZM1 -938.624V-904.052H35.5738V-938.624H1ZM1 -938.624H174.097M1039.69 -592.448V-557.876H1074.27V-592.448H1039.69ZM1039.69 -592.448V-765.536M1039.69 -592.448H1212.79M1039.69 -592.448V-627.02H1005.12V-592.448H1039.69ZM1039.69 -592.448V-419.361M1039.69 -592.448H866.596M1039.69 -419.361H1212.79V-592.448M1039.69 -419.361V-453.933H1178.22V-592.448H1212.79M1039.69 -419.361H1005.12V-557.876H866.596V-592.448M1039.69 -419.361V-246.273H1212.79V-280.845H1074.38V-419.361H1039.69ZM1039.69 -419.361H866.596M1039.69 -419.361V-384.675H901.17V-246.273H866.596M1212.79 -592.448V-627.02H1074.38V-765.536H1039.69M1212.9 -765.536H1178.33V-730.964H1212.9V-765.536ZM1212.9 -765.536H1386M1212.9 -765.536V-592.448M1212.9 -765.536H1247.48V-800.108H1212.9V-765.536ZM1039.69 -765.536H1212.79V-938.624M1039.69 -765.536V-800.108H1178.22V-938.624H1212.79M1039.69 -765.536H866.596M1039.69 -765.536V-730.964H901.17V-592.448H866.596M1039.69 -765.536V-938.624M1039.69 -765.536H1005.12V-904.052H866.596V-938.624M1386 -592.448V-627.02H1351.31V-592.448H1386ZM1386 -592.448V-419.361M1386 -592.448H1212.9M1386 -765.536V-730.964H1247.48V-592.448H1212.9M1386 -765.536V-938.624M1386 -765.536H1351.31V-904.052H1212.9V-938.624M1212.9 -592.448V-557.876H1351.31V-419.361H1386M1212.9 -419.361H1247.48V-453.933H1212.9V-419.361ZM1212.9 -419.361H1178.33V-384.789H1212.9V-419.361ZM1212.9 -419.361H1386M1212.9 -419.361V-246.273H1247.48V-384.675H1386V-419.361M1039.69 -1284.91V-1250.34H1074.27V-1284.91H1039.69ZM1039.69 -1284.91V-1458M1039.69 -1284.91H1212.79M1039.69 -1284.91V-1319.48H1005.12V-1284.91H1039.69ZM1039.69 -1284.91V-1111.71M1039.69 -1284.91H866.596M1039.69 -1111.71H1212.79V-1284.91M1039.69 -1111.71V-1146.4H1178.22V-1284.91H1212.79M1039.69 -1111.71V-938.624M1039.69 -1111.71H1074.38V-973.196H1212.79V-938.624M1039.69 -1111.71V-1111.82H1005.12V-1250.34H866.596V-1284.91M1039.69 -1111.71H866.596M1039.69 -1111.71V-1077.14H901.17V-938.624H866.596M1212.79 -1284.91V-1319.48H1074.38V-1458H1039.69M1212.9 -1458H1178.33V-1423.43H1212.9V-1458ZM1212.9 -1458H1386V-1423.31H1247.48V-1284.91H1212.9M1212.9 -1458V-1284.91M1039.69 -1458H866.596M1039.69 -1458V-1423.31H901.17V-1284.91H866.596M1386 -1284.91V-1319.48H1351.31V-1284.91H1386ZM1386 -1284.91V-1111.71M1386 -1284.91H1212.9M1212.9 -1284.91V-1250.34H1351.31V-1111.82H1386V-1111.71M1212.9 -1111.71H1247.48V-1146.28H1212.9V-1111.71ZM1212.9 -1111.71H1178.33V-1077.14H1212.9V-1111.71ZM1212.9 -1111.71H1386M1212.9 -1111.71V-938.624M1386 -1111.71V-1077.14H1247.48V-938.624H1212.9M1039.69 -938.624V-904.052H1074.27V-938.624H1039.69ZM1039.69 -938.624H1212.79M1039.69 -938.624V-973.196H1005.12V-938.624H1039.69ZM1039.69 -938.624H866.596M1386 -938.624V-973.196H1351.31V-938.624H1386ZM1386 -938.624H1212.9M866.596 -419.361V-592.448M866.596 -419.361H901.17V-453.933H866.596V-419.361ZM866.596 -419.361H832.023V-384.789H866.596V-419.361ZM866.596 -419.361V-246.273M866.596 -592.448V-765.536M866.596 -765.536H832.023V-730.964H866.596V-765.536ZM866.596 -765.536V-938.624M866.596 -765.536H901.17V-800.108H866.596V-765.536ZM866.596 -1111.71V-1284.91M866.596 -1111.71H901.17V-1146.28H866.596V-1111.71ZM866.596 -1111.71H832.023V-1077.14H866.596V-1111.71ZM866.596 -1111.71V-938.624M866.596 -1284.91V-1458M866.596 -1458H832.023V-1423.43H866.596V-1458ZM347.307 446.191V480.763H381.881V446.191H347.307ZM347.307 446.191V273.103M347.307 446.191H520.403M347.307 446.191V411.619H312.733V446.191H347.307ZM347.307 619.392H520.403M347.307 619.392V584.82H485.83V446.305H520.403M347.307 619.392V446.305H174.097M347.307 619.392H312.619V480.877H174.097V446.305M347.307 619.392V792.48M347.307 619.392H381.881V757.908H520.403V792.48M347.307 619.392H174.097M347.307 619.392H347.193V653.964H208.67V792.48H174.097M520.403 619.392V446.305M520.403 619.392H554.977V584.82H520.403V619.392ZM520.403 619.392H485.83V653.964H520.403V619.392ZM520.403 619.392H693.5M520.403 619.392V792.48M520.403 446.305H693.5V619.392M520.403 446.305V480.877H658.926V619.392H693.5M520.403 273.103H485.83V307.676H520.403V273.103ZM520.403 273.103H693.5M520.403 273.103V446.191M520.403 273.103H347.307M520.403 273.103V100.016M520.403 273.103H554.977V238.531H520.403V273.103ZM347.307 273.103H381.881V411.619H520.403V446.191M347.307 273.103V238.531H485.83V100.016H520.403M347.307 273.103H174.097M347.307 273.103H347.193V307.676H208.67V446.191H174.097M347.307 273.103V100.016M347.307 273.103H312.619V134.588H174.097V100.016M520.403 446.191H554.977V307.676H693.5V273.103M693.5 446.191V411.619H658.926V446.191H693.5ZM693.5 446.191V480.763H728.074V446.191H693.5ZM693.5 446.191V273.103M693.5 446.191H866.596M693.5 273.103V100.016M693.5 273.103H658.926V134.588H520.403V100.016M693.5 273.103H728.074V411.619H866.596V446.191M693.5 273.103H866.596M693.5 273.103V238.531H832.023V100.016H866.596M693.5 619.392H866.596M693.5 619.392V584.82H832.023V446.305H866.596M693.5 619.392V653.964H554.977V792.48H520.403M693.5 619.392V792.48M693.5 619.392H728.074V757.908H866.596V792.48M347.307 -246.159V-211.587H381.881V-246.159H347.307ZM347.307 -246.159V-280.731H312.733V-246.159H347.307ZM347.307 -246.159V-73.0718M347.307 -246.159H174.097M347.307 -73.0718H520.403M347.307 -73.0718V-107.758H485.83V-246.159H520.403M347.307 -73.0718V100.016M347.307 -73.0718H381.881V65.4438H520.403V100.016M347.307 -73.0718H312.619V-211.587H174.097V-246.159M347.307 -73.0718H174.097M347.307 -73.0718H347.193V-38.4998H208.67V100.016H174.097M520.403 -73.0718V-246.159M520.403 -73.0718H554.977V-107.758H520.403V-73.0718ZM520.403 -73.0718H485.83V-38.4998H520.403V-73.0718ZM520.403 -73.0718H693.5M520.403 -73.0718V100.016M520.403 -246.159H693.5M520.403 -246.159V-211.587H658.926V-73.0718H693.5M693.5 -246.159V-280.731H658.926V-246.159H693.5ZM693.5 -246.159V-73.0718M693.5 -246.159V-211.587H728.074V-246.159H693.5ZM693.5 -73.0718V-38.4998H554.977V100.016H520.403M693.5 -73.0718H866.596M693.5 -73.0718V-107.758H832.023V-246.159H866.596M693.5 -73.0718V100.016M693.5 -73.0718H728.074V65.4438H866.596V100.016M347.307 100.016V134.588H381.881V100.016H347.307ZM347.307 100.016H520.403M347.307 100.016V65.4438H312.733V100.016H347.307ZM347.307 100.016H174.097M520.403 100.016H693.5M693.5 100.016V65.4438H658.926V100.016H693.5ZM693.5 100.016V134.588H728.074V100.016H693.5ZM693.5 100.016H866.596M1 446.191V480.763H35.5738V446.191H1ZM1 446.191V273.103M1 446.191H174.097M1 619.392H174.097M1 619.392V584.82H139.523V446.305H174.097M1 619.392V792.48M1 619.392H35.6875V757.908H174.097V792.48M174.097 619.392V446.305M174.097 619.392H208.67V584.82H174.097V619.392ZM174.097 619.392H139.523V653.964H174.097V619.392ZM174.097 619.392V792.48M174.097 273.103H139.523V307.676H174.097V273.103ZM174.097 273.103V446.191M174.097 273.103H1M174.097 273.103V100.016M174.097 273.103H208.67V238.531H174.097V273.103ZM1 273.103H35.6875V411.619H174.097V446.191M1 273.103V238.531H139.523V100.016H174.097M1 -73.0718H174.097M1 -73.0718V-107.758H139.523V-246.159H174.097M1 -73.0718V100.016M1 -73.0718H35.6875V65.4438H174.097V100.016M174.097 -73.0718V-246.159M174.097 -73.0718H208.67V-107.758H174.097V-73.0718ZM174.097 -73.0718H139.523V-38.4998H174.097V-73.0718ZM174.097 -73.0718V100.016M1 100.016V134.588H35.5738V100.016H1ZM1 100.016H174.097M1039.69 446.191V480.763H1074.27V446.191H1039.69ZM1039.69 446.191V273.103M1039.69 446.191H1212.79V411.619H1074.38V273.103H1039.69M1039.69 446.191V411.619H1005.12V446.191H1039.69ZM1039.69 619.392H1212.79V446.305H1178.22V584.82H1039.69V619.392ZM1039.69 619.392V446.305H866.596M1039.69 619.392H1005.12V480.877H866.596V446.305M1039.69 619.392V792.48M1039.69 619.392H1074.38V757.908H1212.79V792.48M1039.69 619.392H866.596M1039.69 619.392V653.964H901.17V792.48H866.596M1212.9 273.103H1178.33V307.676H1212.9V273.103ZM1212.9 273.103H1386M1212.9 273.103V446.191H1247.48V307.676H1386V273.103M1212.9 273.103H1247.48V238.531H1212.9V273.103ZM1039.69 273.103H1212.79V100.016M1039.69 273.103V238.531H1178.22V100.016H1212.79M1039.69 273.103H866.596M1039.69 273.103V307.676H901.17V446.191H866.596M1039.69 273.103V100.016M1039.69 273.103H1005.12V134.588H866.596V100.016M1386 273.103V100.016M1386 273.103H1351.31V134.588H1212.9V100.016M1212.9 619.392H1247.48V584.82H1212.9V619.392ZM1212.9 619.392H1178.33V653.964H1212.9V619.392ZM1212.9 619.392H1386M1212.9 619.392V792.48M1386 619.392V446.305H1212.9V480.877H1351.31V619.392H1386ZM1386 619.392V653.964H1247.48V792.48H1212.9M1039.69 -246.159V-211.587H1074.27V-246.159H1039.69ZM1039.69 -246.159V-280.731H1005.12V-246.159H1039.69ZM1039.69 -246.159V-73.0718M1039.69 -246.159H866.596M1039.69 -73.0718H1212.79V-246.159H1178.22V-107.758H1039.69V-73.0718ZM1039.69 -73.0718V100.016M1039.69 -73.0718H1074.38V65.4438H1212.79V100.016M1039.69 -73.0718H1005.12V-211.587H866.596V-246.159M1039.69 -73.0718H866.596M1039.69 -73.0718V-38.4998H901.17V100.016H866.596M1386 -246.159V-280.731H1351.31V-246.159H1386ZM1386 -246.159V-73.0718M1386 -246.159H1212.9V-211.587H1351.31V-73.0718H1386M1212.9 -73.0718H1247.48V-107.758H1212.9V-73.0718ZM1212.9 -73.0718H1178.33V-38.4998H1212.9V-73.0718ZM1212.9 -73.0718H1386M1212.9 -73.0718V100.016M1386 -73.0718V-38.4998H1247.48V100.016H1212.9M1039.69 100.016V134.588H1074.27V100.016H1039.69ZM1039.69 100.016H1212.79M1039.69 100.016V65.4438H1005.12V100.016H1039.69ZM1039.69 100.016H866.596M1386 100.016V65.4438H1351.31V100.016H1386ZM1386 100.016H1212.9M866.596 619.392V446.305M866.596 619.392H901.17V584.82H866.596V619.392ZM866.596 619.392H832.023V653.964H866.596V619.392ZM866.596 619.392V792.48M866.596 273.103H832.023V307.676H866.596V273.103ZM866.596 273.103V446.191M866.596 273.103V100.016M866.596 273.103H901.17V238.531H866.596V273.103ZM866.596 -73.0718V-246.159M866.596 -73.0718H901.17V-107.758H866.596V-73.0718ZM866.596 -73.0718H832.023V-38.4998H866.596V-73.0718ZM866.596 -73.0718V100.016M347.307 1484.83V1519.4H381.881V1484.83H347.307ZM347.307 1484.83V1311.74M347.307 1484.83H520.403M347.307 1484.83V1450.26H312.733V1484.83H347.307ZM347.307 1658.03H520.403M347.307 1658.03V1623.46H485.83V1484.94H520.403M347.307 1658.03V1484.94H174.097M347.307 1658.03H312.619V1519.52H174.097V1484.94M347.307 1658.03V1831.12M347.307 1658.03H381.881V1796.55H520.403V1831.12M347.307 1658.03H174.097M347.307 1658.03H347.193V1692.6H208.67V1831.12H174.097M520.403 1658.03V1484.94M520.403 1658.03H554.977V1623.46H520.403V1658.03ZM520.403 1658.03H485.83V1692.6H520.403V1658.03ZM520.403 1658.03H693.5M520.403 1658.03V1831.12M520.403 1484.94H693.5V1658.03M520.403 1484.94V1519.52H658.926V1658.03H693.5M520.403 1311.74H485.83V1346.31H520.403V1311.74ZM520.403 1311.74H693.5M520.403 1311.74V1484.83M520.403 1311.74H347.307M520.403 1311.74V1138.66M520.403 1311.74H554.977V1277.17H520.403V1311.74ZM347.307 1311.74H381.881V1450.26H520.403V1484.83M347.307 1311.74V1277.17H485.83V1138.66H520.403M347.307 1311.74H174.097M347.307 1311.74H347.193V1346.31H208.67V1484.83H174.097M347.307 1311.74V1138.66M347.307 1311.74H312.619V1173.23H174.097V1138.66M520.403 1484.83H554.977V1346.31H693.5V1311.74M693.5 1484.83V1450.26H658.926V1484.83H693.5ZM693.5 1484.83V1519.4H728.074V1484.83H693.5ZM693.5 1484.83V1311.74M693.5 1484.83H866.596M693.5 1311.74V1138.66M693.5 1311.74H658.926V1173.23H520.403V1138.66M693.5 1311.74H728.074V1450.26H866.596V1484.83M693.5 1311.74H866.596M693.5 1311.74V1277.17H832.023V1138.66H866.596M693.5 1658.03H866.596M693.5 1658.03V1623.46H832.023V1484.94H866.596M693.5 1658.03V1692.6H554.977V1831.12H520.403M693.5 1658.03V1831.12M693.5 1658.03H728.074V1796.55H866.596V1831.12M347.307 792.48V827.052H381.881V792.48H347.307ZM347.307 792.48H520.403M347.307 792.48V757.908H312.733V792.48H347.307ZM347.307 792.48V965.568M347.307 792.48H174.097M347.307 965.568H520.403M347.307 965.568V930.995H485.83V792.48H520.403M347.307 965.568V1138.66M347.307 965.568H381.881V1104.08H520.403V1138.66M347.307 965.568H312.619V827.052H174.097V792.48M347.307 965.568H174.097M347.307 965.568H347.193V1000.14H208.67V1138.66H174.097M520.403 965.568V792.48M520.403 965.568H554.977V930.995H520.403V965.568ZM520.403 965.568H485.83V1000.14H520.403V965.568ZM520.403 965.568H693.5M520.403 965.568V1138.66M520.403 792.48H693.5M520.403 792.48V827.052H658.926V965.568H693.5M693.5 792.48V757.908H658.926V792.48H693.5ZM693.5 792.48V965.568M693.5 792.48V827.052H728.074V792.48H693.5ZM693.5 792.48H866.596M693.5 965.568V1000.14H554.977V1138.66H520.403M693.5 965.568H866.596M693.5 965.568V930.995H832.023V792.48H866.596M693.5 965.568V1138.66M693.5 965.568H728.074V1104.08H866.596V1138.66M347.307 1138.66V1173.23H381.881V1138.66H347.307ZM347.307 1138.66H520.403M347.307 1138.66V1104.08H312.733V1138.66H347.307ZM347.307 1138.66H174.097M520.403 1138.66H693.5M693.5 1138.66V1104.08H658.926V1138.66H693.5ZM693.5 1138.66V1173.23H728.074V1138.66H693.5ZM693.5 1138.66H866.596M1 1484.83V1519.4H35.5738V1484.83H1ZM1 1484.83H174.097M1 1484.83V1475V1311.74M1 1658.03H174.097M1 1658.03V1623.46H139.523V1484.94H174.097M1 1658.03V1831.12M1 1658.03H35.6875V1796.55H174.097V1831.12M174.097 1658.03V1484.94M174.097 1658.03H208.67V1623.46H174.097V1658.03ZM174.097 1658.03H139.523V1692.6H174.097V1658.03ZM174.097 1658.03V1831.12M174.097 1311.74H139.523V1346.31H174.097V1311.74ZM174.097 1311.74V1484.83M174.097 1311.74H1M174.097 1311.74V1138.66M174.097 1311.74H208.67V1277.17H174.097V1311.74ZM1 1311.74H35.6875V1450.26H174.097V1484.83M1 1311.74V1277.17H139.523V1138.66H174.097M1 792.48V827.052H35.5738V792.48H1ZM1 792.48H174.097M1 965.568H174.097M1 965.568V930.995H139.523V792.48H174.097M1 965.568V1138.66M1 965.568H35.6875V1104.08H174.097V1138.66M174.097 965.568V792.48M174.097 965.568H208.67V930.995H174.097V965.568ZM174.097 965.568H139.523V1000.14H174.097V965.568ZM174.097 965.568V1138.66M1 1138.66V1173.23H35.5738V1138.66H1ZM1 1138.66H174.097M1039.69 1484.83V1519.4H1074.27V1484.83H1039.69ZM1039.69 1484.83V1311.74M1039.69 1484.83H1212.79V1450.26H1074.38V1311.74H1039.69M1039.69 1484.83V1450.26H1005.12V1484.83H1039.69ZM1039.69 1658.03H1212.79V1484.94H1178.22V1623.46H1039.69V1658.03ZM1039.69 1658.03V1484.94H866.596M1039.69 1658.03H1005.12V1519.52H866.596V1484.94M1039.69 1658.03V1831.12M1039.69 1658.03H1074.38V1796.55H1212.79V1831.12M1039.69 1658.03H866.596M1039.69 1658.03V1692.6H901.17V1831.12H866.596M1212.9 1311.74H1178.33V1346.31H1212.9V1311.74ZM1212.9 1311.74H1386M1212.9 1311.74V1484.83H1247.48V1346.31H1386V1311.74M1212.9 1311.74H1247.48V1277.17H1212.9V1311.74ZM1039.69 1311.74H1212.79V1138.66M1039.69 1311.74V1277.17H1178.22V1138.66H1212.79M1039.69 1311.74H866.596M1039.69 1311.74V1346.31H901.17V1484.83H866.596M1039.69 1311.74V1138.66M1039.69 1311.74H1005.12V1173.23H866.596V1138.66M1386 1311.74V1138.66M1386 1311.74H1351.31V1173.23H1212.9V1138.66M1212.9 1658.03H1247.48V1623.46H1212.9V1658.03ZM1212.9 1658.03H1178.33V1692.6H1212.9V1658.03ZM1212.9 1658.03H1386M1212.9 1658.03V1831.12M1386 1658.03V1484.94H1212.9V1519.52H1351.31V1658.03H1386ZM1386 1658.03V1692.6H1247.48V1831.12H1212.9M1039.69 792.48V827.052H1074.27V792.48H1039.69ZM1039.69 792.48H1212.79M1039.69 792.48V757.908H1005.12V792.48H1039.69ZM1039.69 792.48V965.568M1039.69 792.48H866.596M1039.69 965.568H1212.79V792.48M1039.69 965.568V930.995H1178.22V792.48H1212.79M1039.69 965.568V1138.66M1039.69 965.568H1074.38V1104.08H1212.79V1138.66M1039.69 965.568H1005.12V827.052H866.596V792.48M1039.69 965.568H866.596M1039.69 965.568V1000.14H901.17V1138.66H866.596M1386 792.48V757.908H1351.31V792.48H1386ZM1386 792.48V965.568M1386 792.48H1212.9M1212.9 792.48V827.052H1351.31V965.568H1386M1212.9 965.568H1247.48V930.995H1212.9V965.568ZM1212.9 965.568H1178.33V1000.14H1212.9V965.568ZM1212.9 965.568H1386M1212.9 965.568V1138.66M1386 965.568V1000.14H1247.48V1138.66H1212.9M1039.69 1138.66V1173.23H1074.27V1138.66H1039.69ZM1039.69 1138.66H1212.79M1039.69 1138.66V1104.08H1005.12V1138.66H1039.69ZM1039.69 1138.66H866.596M1386 1138.66V1104.08H1351.31V1138.66H1386ZM1386 1138.66H1212.9M866.596 1658.03V1484.94M866.596 1658.03H901.17V1623.46H866.596V1658.03ZM866.596 1658.03H832.023V1692.6H866.596V1658.03ZM866.596 1658.03V1831.12M866.596 1311.74H832.023V1346.31H866.596V1311.74ZM866.596 1311.74V1484.83M866.596 1311.74V1138.66M866.596 1311.74H901.17V1277.17H866.596V1311.74ZM866.596 965.568V792.48M866.596 965.568H901.17V930.995H866.596V965.568ZM866.596 965.568H832.023V1000.14H866.596V965.568ZM866.596 965.568V1138.66M347.307 2523.58V2558.16H381.881V2523.58H347.307ZM347.307 2523.58V2489.01H312.733V2523.58H347.307ZM347.307 2523.58V2696.67M347.307 2523.58H174.097M347.307 2696.67H520.403M347.307 2696.67V2662.1H485.83V2523.58H520.403M347.307 2696.67H312.619V2558.16H174.097V2523.58M520.403 2696.67V2523.58M520.403 2696.67H554.977V2662.1H520.403V2696.67ZM520.403 2523.58H693.5M520.403 2523.58V2558.16H658.926V2696.67H693.5M520.403 2350.38H485.83V2384.95H520.403V2350.38ZM520.403 2350.38H693.5M520.403 2350.38V2523.47M520.403 2350.38H347.307M520.403 2350.38V2177.29M520.403 2350.38H554.977V2315.81H520.403V2350.38ZM347.307 2350.38V2523.47H520.403M347.307 2350.38H381.881V2488.9H520.403V2523.47M347.307 2350.38V2315.81H485.83V2177.29H520.403M347.307 2350.38H174.097M347.307 2350.38H347.193V2385.07H208.67V2523.47H174.097M347.307 2350.38V2177.29M347.307 2350.38H312.619V2211.87H174.097V2177.29M520.403 2523.47H554.977V2385.07H693.5V2350.38M693.5 2523.58V2489.01H658.926V2523.58H693.5ZM693.5 2523.58V2696.67M693.5 2523.58V2558.16H728.074V2523.58H693.5ZM693.5 2350.38V2177.29M693.5 2350.38H658.926V2211.87H520.403V2177.29M693.5 2350.38V2523.47H866.596M693.5 2350.38H728.074V2488.9H866.596V2523.47M693.5 2350.38H866.596M693.5 2350.38V2315.81H832.023V2177.29H866.596M693.5 2696.67H866.596M693.5 2696.67V2662.1H832.023V2523.58H866.596M347.307 1831.12V1865.69H381.881V1831.12H347.307ZM347.307 1831.12H520.403M347.307 1831.12V1796.55H312.733V1831.12H347.307ZM347.307 1831.12V2004.21M347.307 1831.12H174.097M347.307 2004.21H520.403M347.307 2004.21V1969.63H485.83V1831.12H520.403M347.307 2004.21V2177.29M347.307 2004.21H381.881V2142.72H520.403V2177.29M347.307 2004.21H312.619V1865.69H174.097V1831.12M347.307 2004.21H174.097M347.307 2004.21H347.193V2038.78H208.67V2177.29H174.097M520.403 2004.21V1831.12M520.403 2004.21H554.977V1969.63H520.403V2004.21ZM520.403 2004.21H485.83V2038.78H520.403V2004.21ZM520.403 2004.21H693.5M520.403 2004.21V2177.29M520.403 1831.12H693.5M520.403 1831.12V1865.69H658.926V2004.21H693.5M693.5 1831.12V1796.55H658.926V1831.12H693.5ZM693.5 1831.12V2004.21M693.5 1831.12V1865.69H728.074V1831.12H693.5ZM693.5 1831.12H866.596M693.5 2004.21V2038.78H554.977V2177.29H520.403M693.5 2004.21H866.596M693.5 2004.21V1969.63H832.023V1831.12H866.596M693.5 2004.21V2177.29M693.5 2004.21H728.074V2142.72H866.596V2177.29M347.307 2177.29V2211.87H381.881V2177.29H347.307ZM347.307 2177.29H520.403M347.307 2177.29V2142.72H312.733V2177.29H347.307ZM347.307 2177.29H174.097M520.403 2177.29H693.5M693.5 2177.29V2142.72H658.926V2177.29H693.5ZM693.5 2177.29V2211.87H728.074V2177.29H693.5ZM693.5 2177.29H866.596M174.097 2696.67H1V2662.1H139.523V2523.58H174.097M174.097 2696.67V2523.58M174.097 2696.67H208.67V2662.1H174.097V2696.67ZM174.097 2350.38H139.523V2384.95H174.097V2350.38ZM174.097 2350.38V2523.47M174.097 2350.38H1M174.097 2350.38V2177.29M174.097 2350.38H208.67V2315.81H174.097V2350.38ZM1 2350.38V2523.47H174.097M1 2350.38H35.6875V2488.9H174.097V2523.47M1 2350.38V2315.81H139.523V2177.29H174.097M1 1831.12V1865.69H35.5738V1831.12H1ZM1 1831.12H174.097M1 2004.21H174.097M1 2004.21V1969.63H139.523V1831.12H174.097M1 2004.21V2177.29M1 2004.21H35.6875V2142.72H174.097V2177.29M174.097 2004.21V1831.12M174.097 2004.21H208.67V1969.63H174.097V2004.21ZM174.097 2004.21H139.523V2038.78H174.097V2004.21ZM174.097 2004.21V2177.29M1 2177.29V2211.87H35.5738V2177.29H1ZM1 2177.29H174.097M1039.69 2523.58V2558.16H1074.27V2523.58H1039.69ZM1039.69 2523.58V2489.01H1005.12V2523.58H1039.69ZM1039.69 2523.58V2696.67M1039.69 2523.58H866.596M1039.69 2696.67H1212.79V2523.58H1178.22V2662.1H1039.69V2696.67ZM1039.69 2696.67H1005.12V2558.16H866.596V2523.58M1212.9 2350.38H1178.33V2384.95H1212.9V2350.38ZM1212.9 2350.38H1386M1212.9 2350.38V2523.47H1247.48V2385.07H1386V2350.38M1212.9 2350.38H1247.48V2315.81H1212.9V2350.38ZM1039.69 2350.38V2523.47H1212.79V2488.9H1074.38V2350.38H1039.69ZM1039.69 2350.38H1212.79V2177.29M1039.69 2350.38V2315.81H1178.22V2177.29H1212.79M1039.69 2350.38H866.596M1039.69 2350.38V2385.07H901.17V2523.47H866.596M1039.69 2350.38V2177.29M1039.69 2350.38H1005.12V2211.87H866.596V2177.29M1386 2523.58V2489.01H1351.31V2523.58H1386ZM1386 2523.58V2696.67H1351.31V2558.16H1212.9V2523.58H1386ZM1386 2350.38V2177.29M1386 2350.38H1351.31V2211.87H1212.9V2177.29M1039.69 1831.12V1865.69H1074.27V1831.12H1039.69ZM1039.69 1831.12H1212.79M1039.69 1831.12V1796.55H1005.12V1831.12H1039.69ZM1039.69 1831.12V2004.21M1039.69 1831.12H866.596M1039.69 2004.21H1212.79V1831.12M1039.69 2004.21V1969.63H1178.22V1831.12H1212.79M1039.69 2004.21V2177.29M1039.69 2004.21H1074.38V2142.72H1212.79V2177.29M1039.69 2004.21H1005.12V1865.69H866.596V1831.12M1039.69 2004.21H866.596M1039.69 2004.21V2038.78H901.17V2177.29H866.596M1386 1831.12V1796.55H1351.31V1831.12H1386ZM1386 1831.12V2004.21M1386 1831.12H1212.9M1212.9 1831.12V1865.69H1351.31V2004.21H1386M1212.9 2004.21H1247.48V1969.63H1212.9V2004.21ZM1212.9 2004.21H1178.33V2038.78H1212.9V2004.21ZM1212.9 2004.21H1386M1212.9 2004.21V2177.29M1386 2004.21V2038.78H1247.48V2177.29H1212.9M1039.69 2177.29V2211.87H1074.27V2177.29H1039.69ZM1039.69 2177.29H1212.79M1039.69 2177.29V2142.72H1005.12V2177.29H1039.69ZM1039.69 2177.29H866.596M1386 2177.29V2142.72H1351.31V2177.29H1386ZM1386 2177.29H1212.9M866.596 2696.67V2523.58M866.596 2696.67H901.17V2662.1H866.596V2696.67ZM866.596 2350.38H832.023V2384.95H866.596V2350.38ZM866.596 2350.38V2523.47M866.596 2350.38V2177.29M866.596 2350.38H901.17V2315.81H866.596V2350.38ZM866.596 2004.21V1831.12M866.596 2004.21H901.17V1969.63H866.596V2004.21ZM866.596 2004.21H832.023V2038.78H866.596V2004.21ZM866.596 2004.21V2177.29M347.307 3561.88V3596.45H381.881V3561.88H347.307ZM347.307 3561.88V3388.79M347.307 3561.88H520.403M347.307 3561.88V3527.31H312.733V3561.88H347.307ZM347.307 3561.88V3734.97M347.307 3561.88H174.097M347.307 3734.97H520.403M347.307 3734.97V3700.4H485.83V3561.88H520.403M347.307 3734.97H312.619V3596.45H174.097V3561.88M347.307 3734.97V3908.06H520.403M347.307 3734.97H381.881V3873.48H520.403V3908.06M347.307 3734.97H174.097M347.307 3734.97H347.193V3769.65H208.67V3908.06H174.097M520.403 3734.97V3561.88M520.403 3734.97H554.977V3700.4H520.403V3734.97ZM520.403 3734.97H485.83V3769.54H520.403V3734.97ZM520.403 3734.97H693.5M520.403 3734.97V3908.06M520.403 3561.88V3527.31H381.881V3388.79H347.307M520.403 3561.88V3388.79M520.403 3561.88H554.977V3423.37H693.5V3388.79M520.403 3561.88H693.5M520.403 3561.88V3596.45H658.926V3734.97H693.5M520.403 3388.79H485.83V3423.37H520.403V3388.79ZM520.403 3388.79H693.5M520.403 3388.79H347.307M520.403 3388.79V3215.71M520.403 3388.79H554.977V3354.22H520.403V3388.79ZM347.307 3388.79V3354.22H485.83V3215.71H520.403M347.307 3388.79H174.097M347.307 3388.79H347.193V3423.37H208.67V3561.88H174.097M347.307 3388.79V3215.71M347.307 3388.79H312.619V3250.28H174.097V3215.71M693.5 3561.88V3527.31H658.926V3561.88H693.5ZM693.5 3561.88V3734.97M693.5 3561.88V3596.45H728.074V3561.88H693.5ZM693.5 3561.88V3388.79M693.5 3561.88H866.596M693.5 3388.79V3215.71M693.5 3388.79H658.926V3250.28H520.403V3215.71M693.5 3388.79H728.074V3527.31H866.596V3561.88M693.5 3388.79H866.596M693.5 3388.79V3354.22H832.023V3215.71H866.596M693.5 3734.97H866.596M693.5 3734.97V3700.4H832.023V3561.88H866.596M693.5 3734.97V3769.65H554.977V3908.06H520.403M693.5 3734.97V3908.06H866.596M693.5 3734.97H728.074V3873.48H866.596V3908.06M347.307 2869.42V2903.99H381.881V2869.42H347.307ZM347.307 2869.42V2696.33M347.307 2869.42H520.403M347.307 2869.42V2834.85H312.733V2869.42H347.307ZM347.307 2869.42V3042.62M347.307 2869.42H174.097M347.307 3042.62H520.403M347.307 3042.62V3007.93H485.83V2869.42H520.403M347.307 3042.62V3215.71M347.307 3042.62H381.881V3181.13H520.403V3215.71M347.307 3042.62V3042.5H312.619V2903.99H174.097V2869.42M347.307 3042.62H174.097M347.307 3042.62H347.193V3077.19H208.67V3215.71H174.097M520.403 3042.62V2869.42M520.403 3042.62H554.977V3008.05H520.403V3042.62ZM520.403 3042.62H485.83V3077.19H520.403V3042.62ZM520.403 3042.62H693.5M520.403 3042.62V3215.71M520.403 2869.42V2834.85H381.881V2696.33H347.307M520.403 2869.42V2696.33M520.403 2869.42H554.977V2731.02H693.5V2696.33M520.403 2869.42H693.5M520.403 2869.42V2903.99H658.926V3042.5H693.5V3042.62M520.403 2696.33H485.83V2730.9H520.403V2696.33ZM520.403 2696.33H693.5M347.307 2696.33H174.097M347.307 2696.33H347.193V2731.02H208.67V2869.42H174.097M693.5 2869.42V2834.85H658.926V2869.42H693.5ZM693.5 2869.42V3042.62M693.5 2869.42V2903.99H728.074V2869.42H693.5ZM693.5 2869.42V2696.33M693.5 2869.42H866.596M693.5 2696.33H728.074V2834.85H866.596V2869.42M693.5 3042.62V3077.19H554.977V3215.71H520.403M693.5 3042.62H866.596M693.5 3042.62V3007.93H832.023V2869.42H866.596M693.5 3042.62V3215.71M693.5 3042.62H728.074V3181.13H866.596V3215.71M347.307 3215.71V3250.28H381.881V3215.71H347.307ZM347.307 3215.71H520.403M347.307 3215.71V3181.13H312.733V3215.71H347.307ZM347.307 3215.71H174.097M520.403 3215.71H693.5M693.5 3215.71V3181.13H658.926V3215.71H693.5ZM693.5 3215.71V3250.28H728.074V3215.71H693.5ZM693.5 3215.71H866.596M1 3561.88V3596.45H35.5738V3561.88H1ZM1 3561.88V3388.79M1 3561.88H174.097M1 3734.97H174.097M1 3734.97V3700.4H139.523V3561.88H174.097M1 3734.97V3908.06H174.097M1 3734.97H35.6875V3873.48H174.097V3908.06M174.097 3734.97V3561.88M174.097 3734.97H208.67V3700.4H174.097V3734.97ZM174.097 3734.97H139.523V3769.54H174.097V3734.97ZM174.097 3734.97V3908.06M174.097 3561.88V3527.31H35.6875V3388.79H1M174.097 3561.88V3388.79M174.097 3388.79H139.523V3423.37H174.097V3388.79ZM174.097 3388.79H1M174.097 3388.79V3215.71M174.097 3388.79H208.67V3354.22H174.097V3388.79ZM1 3388.79V3354.22H139.523V3215.71H174.097M1 2869.42V2903.99H35.5738V2869.42H1ZM1 2869.42V2696.33H35.6875V2834.85H174.097V2869.42M1 2869.42H174.097M1 3042.62H174.097M1 3042.62V3007.93H139.523V2869.42H174.097M1 3042.62V3215.71M1 3042.62H35.6875V3181.13H174.097V3215.71M174.097 3042.62V2869.42M174.097 3042.62H208.67V3008.05H174.097V3042.62ZM174.097 3042.62H139.523V3077.19H174.097V3042.62ZM174.097 3042.62V3215.71M174.097 2869.42V2696.33M174.097 2696.33H139.523V2730.9H174.097V2696.33ZM1 3215.71V3250.28H35.5738V3215.71H1ZM1 3215.71H174.097M1039.69 3561.88V3596.45H1074.27V3561.88H1039.69ZM1039.69 3561.88V3388.79M1039.69 3561.88H1212.79M1039.69 3561.88V3527.31H1005.12V3561.88H1039.69ZM1039.69 3561.88V3734.97M1039.69 3561.88H866.596M1039.69 3734.97H1212.79V3561.88M1039.69 3734.97V3700.4H1178.22V3561.88H1212.79M1039.69 3734.97H1005.12V3596.45H866.596V3561.88M1039.69 3734.97V3908.06H1212.79V3873.48H1074.38V3734.97H1039.69ZM1039.69 3734.97H866.596M1039.69 3734.97V3769.65H901.17V3908.06H866.596M1212.79 3561.88V3527.31H1074.38V3388.79H1039.69M1212.9 3388.79H1178.33V3423.37H1212.9V3388.79ZM1212.9 3388.79H1386M1212.9 3388.79V3561.88M1212.9 3388.79H1247.48V3354.22H1212.9V3388.79ZM1039.69 3388.79H1212.79V3215.71M1039.69 3388.79V3354.22H1178.22V3215.71H1212.79M1039.69 3388.79H866.596M1039.69 3388.79V3423.37H901.17V3561.88H866.596M1039.69 3388.79V3215.71M1039.69 3388.79H1005.12V3250.28H866.596V3215.71M1386 3561.88V3527.31H1351.31V3561.88H1386ZM1386 3561.88V3734.97M1386 3561.88H1212.9M1386 3388.79V3423.37H1247.48V3561.88H1212.9M1386 3388.79V3215.71M1386 3388.79H1351.31V3250.28H1212.9V3215.71M1212.9 3561.88V3596.45H1351.31V3734.97H1386M1212.9 3734.97H1247.48V3700.4H1212.9V3734.97ZM1212.9 3734.97H1178.33V3769.54H1212.9V3734.97ZM1212.9 3734.97H1386M1212.9 3734.97V3908.06H1247.48V3769.65H1386V3734.97M1039.69 2869.42V2903.99H1074.27V2869.42H1039.69ZM1039.69 2869.42V2696.33M1039.69 2869.42H1212.79M1039.69 2869.42V2834.85H1005.12V2869.42H1039.69ZM1039.69 2869.42V3042.62M1039.69 2869.42H866.596M1039.69 3042.62H1212.79V2869.42M1039.69 3042.62V3007.93H1178.22V2869.42H1212.79M1039.69 3042.62V3215.71M1039.69 3042.62H1074.38V3181.13H1212.79V3215.71M1039.69 3042.62V3042.5H1005.12V2903.99H866.596V2869.42M1039.69 3042.62H866.596M1039.69 3042.62V3077.19H901.17V3215.71H866.596M1212.79 2869.42V2834.85H1074.38V2696.33H1039.69M1212.9 2696.33H1178.33V2730.9H1212.9V2696.33ZM1212.9 2696.33H1386V2731.02H1247.48V2869.42H1212.9M1212.9 2696.33V2869.42M1039.69 2696.33H866.596M1039.69 2696.33V2731.02H901.17V2869.42H866.596M1386 2869.42V2834.85H1351.31V2869.42H1386ZM1386 2869.42V3042.62M1386 2869.42H1212.9M1212.9 2869.42V2903.99H1351.31V3042.5H1386V3042.62M1212.9 3042.62H1247.48V3008.05H1212.9V3042.62ZM1212.9 3042.62H1178.33V3077.19H1212.9V3042.62ZM1212.9 3042.62H1386M1212.9 3042.62V3215.71M1386 3042.62V3077.19H1247.48V3215.71H1212.9M1039.69 3215.71V3250.28H1074.27V3215.71H1039.69ZM1039.69 3215.71H1212.79M1039.69 3215.71V3181.13H1005.12V3215.71H1039.69ZM1039.69 3215.71H866.596M1386 3215.71V3181.13H1351.31V3215.71H1386ZM1386 3215.71H1212.9M866.596 3734.97V3561.88M866.596 3734.97H901.17V3700.4H866.596V3734.97ZM866.596 3734.97H832.023V3769.54H866.596V3734.97ZM866.596 3734.97V3908.06M866.596 3561.88V3388.79M866.596 3388.79H832.023V3423.37H866.596V3388.79ZM866.596 3388.79V3215.71M866.596 3388.79H901.17V3354.22H866.596V3388.79ZM866.596 3042.62V2869.42M866.596 3042.62H901.17V3008.05H866.596V3042.62ZM866.596 3042.62H832.023V3077.19H866.596V3042.62ZM866.596 3042.62V3215.71M866.596 2869.42V2696.33M866.596 2696.33H832.023V2730.9H866.596V2696.33ZM347.307 4600.52V4635.09H381.881V4600.52H347.307ZM347.307 4600.52V4427.43M347.307 4600.52H520.403M347.307 4600.52V4565.95H312.733V4600.52H347.307ZM347.307 4773.72H520.403M347.307 4773.72V4739.15H485.83V4600.63H520.403M347.307 4773.72V4600.63H174.097M347.307 4773.72H312.619V4635.21H174.097V4600.63M347.307 4773.72V4946.81M347.307 4773.72H381.881V4912.24H520.403V4946.81M347.307 4773.72H174.097M347.307 4773.72H347.193V4808.29H208.67V4946.81H174.097M520.403 4773.72V4600.63M520.403 4773.72H554.977V4739.15H520.403V4773.72ZM520.403 4773.72H485.83V4808.29H520.403V4773.72ZM520.403 4773.72H693.5M520.403 4773.72V4946.81M520.403 4600.63H693.5V4773.72M520.403 4600.63V4635.21H658.926V4773.72H693.5M520.403 4427.43H485.83V4462.01H520.403V4427.43ZM520.403 4427.43H693.5M520.403 4427.43V4600.52M520.403 4427.43H347.307M520.403 4427.43V4254.35M520.403 4427.43H554.977V4392.86H520.403V4427.43ZM347.307 4427.43H381.881V4565.95H520.403V4600.52M347.307 4427.43V4392.86H485.83V4254.35H520.403M347.307 4427.43H174.097M347.307 4427.43H347.193V4462.01H208.67V4600.52H174.097M347.307 4427.43V4254.35M347.307 4427.43H312.619V4288.92H174.097V4254.35M520.403 4600.52H554.977V4462.01H693.5V4427.43M693.5 4600.52V4565.95H658.926V4600.52H693.5ZM693.5 4600.52V4635.09H728.074V4600.52H693.5ZM693.5 4600.52V4427.43M693.5 4600.52H866.596M693.5 4427.43V4254.35M693.5 4427.43H658.926V4288.92H520.403V4254.35M693.5 4427.43H728.074V4565.95H866.596V4600.52M693.5 4427.43H866.596M693.5 4427.43V4392.86H832.023V4254.35H866.596M693.5 4773.72H866.596M693.5 4773.72V4739.15H832.023V4600.63H866.596M693.5 4773.72V4808.29H554.977V4946.81H520.403M693.5 4773.72V4946.81M693.5 4773.72H728.074V4912.24H866.596V4946.81M347.307 3908.17V3942.74H381.881V3908.17H347.307ZM347.307 3908.17V3873.6H312.733V3908.17H347.307ZM347.307 3908.17V4081.26M347.307 3908.17H174.097M347.307 4081.26H520.403M347.307 4081.26V4046.57H485.83V3908.17H520.403M347.307 4081.26V4254.35M347.307 4081.26H381.881V4219.77H520.403V4254.35M347.307 4081.26H312.619V3942.74H174.097V3908.17M347.307 4081.26H174.097M347.307 4081.26H347.193V4115.83H208.67V4254.35H174.097M520.403 4081.26V3908.17M520.403 4081.26H554.977V4046.57H520.403V4081.26ZM520.403 4081.26H485.83V4115.83H520.403V4081.26ZM520.403 4081.26H693.5M520.403 4081.26V4254.35M520.403 3908.17H693.5M520.403 3908.17V3942.74H658.926V4081.26H693.5M693.5 3908.17V3873.6H658.926V3908.17H693.5ZM693.5 3908.17V4081.26M693.5 3908.17V3942.74H728.074V3908.17H693.5ZM693.5 4081.26V4115.83H554.977V4254.35H520.403M693.5 4081.26H866.596M693.5 4081.26V4046.57H832.023V3908.17H866.596M693.5 4081.26V4254.35M693.5 4081.26H728.074V4219.77H866.596V4254.35M347.307 4254.35V4288.92H381.881V4254.35H347.307ZM347.307 4254.35H520.403M347.307 4254.35V4219.77H312.733V4254.35H347.307ZM347.307 4254.35H174.097M520.403 4254.35H693.5M693.5 4254.35V4219.77H658.926V4254.35H693.5ZM693.5 4254.35V4288.92H728.074V4254.35H693.5ZM693.5 4254.35H866.596M1 4600.52V4635.09H35.5738V4600.52H1ZM1 4600.52V4427.43M1 4600.52H174.097M1 4773.72H174.097M1 4773.72V4739.15H139.523V4600.63H174.097M1 4773.72V4946.81M1 4773.72H35.6875V4912.24H174.097V4946.81M174.097 4773.72V4600.63M174.097 4773.72H208.67V4739.15H174.097V4773.72ZM174.097 4773.72H139.523V4808.29H174.097V4773.72ZM174.097 4773.72V4946.81M174.097 4427.43H139.523V4462.01H174.097V4427.43ZM174.097 4427.43V4600.52M174.097 4427.43H1M174.097 4427.43V4254.35M174.097 4427.43H208.67V4392.86H174.097V4427.43ZM1 4427.43H35.6875V4565.95H174.097V4600.52M1 4427.43V4392.86H139.523V4254.35H174.097M1 4081.26H174.097M1 4081.26V4046.57H139.523V3908.17H174.097M1 4081.26V4254.35M1 4081.26H35.6875V4219.77H174.097V4254.35M174.097 4081.26V3908.17M174.097 4081.26H208.67V4046.57H174.097V4081.26ZM174.097 4081.26H139.523V4115.83H174.097V4081.26ZM174.097 4081.26V4254.35M1 4254.35V4288.92H35.5738V4254.35H1ZM1 4254.35H174.097M1039.69 4600.52V4635.09H1074.27V4600.52H1039.69ZM1039.69 4600.52V4427.43M1039.69 4600.52H1212.79V4565.95H1074.38V4427.43H1039.69M1039.69 4600.52V4565.95H1005.12V4600.52H1039.69ZM1039.69 4773.72H1212.79V4600.63H1178.22V4739.15H1039.69V4773.72ZM1039.69 4773.72V4600.63H866.596M1039.69 4773.72H1005.12V4635.21H866.596V4600.63M1039.69 4773.72V4946.81M1039.69 4773.72H1074.38V4912.24H1212.79V4946.81M1039.69 4773.72H866.596M1039.69 4773.72V4808.29H901.17V4946.81H866.596M1212.9 4427.43H1178.33V4462.01H1212.9V4427.43ZM1212.9 4427.43H1386M1212.9 4427.43V4600.52H1247.48V4462.01H1386V4427.43M1212.9 4427.43H1247.48V4392.86H1212.9V4427.43ZM1039.69 4427.43H1212.79V4254.35M1039.69 4427.43V4392.86H1178.22V4254.35H1212.79M1039.69 4427.43H866.596M1039.69 4427.43V4462.01H901.17V4600.52H866.596M1039.69 4427.43V4254.35M1039.69 4427.43H1005.12V4288.92H866.596V4254.35M1386 4427.43V4254.35M1386 4427.43H1351.31V4288.92H1212.9V4254.35M1212.9 4773.72H1247.48V4739.15H1212.9V4773.72ZM1212.9 4773.72H1178.33V4808.29H1212.9V4773.72ZM1212.9 4773.72H1386M1212.9 4773.72V4946.81M1386 4773.72V4600.63H1212.9V4635.21H1351.31V4773.72H1386ZM1386 4773.72V4808.29H1247.48V4946.81H1212.9M1039.69 3908.17V3942.74H1074.27V3908.17H1039.69ZM1039.69 3908.17V3873.6H1005.12V3908.17H1039.69ZM1039.69 3908.17V4081.26M1039.69 3908.17H866.596M1039.69 4081.26H1212.79V3908.17H1178.22V4046.57H1039.69V4081.26ZM1039.69 4081.26V4254.35M1039.69 4081.26H1074.38V4219.77H1212.79V4254.35M1039.69 4081.26H1005.12V3942.74H866.596V3908.17M1039.69 4081.26H866.596M1039.69 4081.26V4115.83H901.17V4254.35H866.596M1386 3908.17V3873.6H1351.31V3908.17H1386ZM1386 3908.17V4081.26M1386 3908.17H1212.9V3942.74H1351.31V4081.26H1386M1212.9 4081.26H1247.48V4046.57H1212.9V4081.26ZM1212.9 4081.26H1178.33V4115.83H1212.9V4081.26ZM1212.9 4081.26H1386M1212.9 4081.26V4254.35M1386 4081.26V4115.83H1247.48V4254.35H1212.9M1039.69 4254.35V4288.92H1074.27V4254.35H1039.69ZM1039.69 4254.35H1212.79M1039.69 4254.35V4219.77H1005.12V4254.35H1039.69ZM1039.69 4254.35H866.596M1386 4254.35V4219.77H1351.31V4254.35H1386ZM1386 4254.35H1212.9M866.596 4773.72V4600.63M866.596 4773.72H901.17V4739.15H866.596V4773.72ZM866.596 4773.72H832.023V4808.29H866.596V4773.72ZM866.596 4773.72V4946.81M866.596 4427.43H832.023V4462.01H866.596V4427.43ZM866.596 4427.43V4600.52M866.596 4427.43V4254.35M866.596 4427.43H901.17V4392.86H866.596V4427.43ZM866.596 4081.26V3908.17M866.596 4081.26H901.17V4046.57H866.596V4081.26ZM866.596 4081.26H832.023V4115.83H866.596V4081.26ZM866.596 4081.26V4254.35M347.307 5639.16V5673.73H381.881V5639.16H347.307ZM347.307 5639.16V5466.07M347.307 5639.16H520.403M347.307 5639.16V5604.59H312.733V5639.16H347.307ZM347.307 5812.36H520.403M347.307 5812.36V5777.79H485.83V5639.27H520.403M347.307 5812.36V5639.27H174.097M347.307 5812.36H312.619V5673.85H174.097V5639.27M347.307 5812.36V5985.45M347.307 5812.36H381.881V5950.88H520.403V5985.45M347.307 5812.36H174.097M347.307 5812.36H347.193V5846.93H208.67V5985.45H174.097M520.403 5812.36V5639.27M520.403 5812.36H554.977V5777.79H520.403V5812.36ZM520.403 5812.36H485.83V5846.93H520.403V5812.36ZM520.403 5812.36H693.5M520.403 5812.36V5985.45M520.403 5639.27H693.5V5812.36M520.403 5639.27V5673.85H658.926V5812.36H693.5M520.403 5466.07H485.83V5500.64H520.403V5466.07ZM520.403 5466.07H693.5M520.403 5466.07V5639.16M520.403 5466.07H347.307M520.403 5466.07V5292.98M520.403 5466.07H554.977V5431.5H520.403V5466.07ZM347.307 5466.07H381.881V5604.59H520.403V5639.16M347.307 5466.07V5431.5H485.83V5292.98H520.403M347.307 5466.07H174.097M347.307 5466.07H347.193V5500.64H208.67V5639.16H174.097M347.307 5466.07V5292.98M347.307 5466.07H312.619V5327.56H174.097V5292.98M520.403 5639.16H554.977V5500.64H693.5V5466.07M693.5 5639.16V5604.59H658.926V5639.16H693.5ZM693.5 5639.16V5673.73H728.074V5639.16H693.5ZM693.5 5639.16V5466.07M693.5 5639.16H866.596M693.5 5466.07V5292.98M693.5 5466.07H658.926V5327.56H520.403V5292.98M693.5 5466.07H728.074V5604.59H866.596V5639.16M693.5 5466.07H866.596M693.5 5466.07V5431.5H832.023V5292.98H866.596M693.5 5812.36H866.596M693.5 5812.36V5777.79H832.023V5639.27H866.596M693.5 5812.36V5846.93H554.977V5985.45H520.403M693.5 5812.36V5985.45M693.5 5812.36H728.074V5950.88H866.596V5985.45M347.307 4946.81V4981.38H381.881V4946.81H347.307ZM347.307 4946.81H520.403M347.307 4946.81V4912.24H312.733V4946.81H347.307ZM347.307 4946.81V5119.9M347.307 4946.81H174.097M347.307 5119.9H520.403M347.307 5119.9V5085.33H485.83V4946.81H520.403M347.307 5119.9V5292.98M347.307 5119.9H381.881V5258.41H520.403V5292.98M347.307 5119.9H312.619V4981.38H174.097V4946.81M347.307 5119.9H174.097M347.307 5119.9H347.193V5154.47H208.67V5292.98H174.097M520.403 5119.9V4946.81M520.403 5119.9H554.977V5085.33H520.403V5119.9ZM520.403 5119.9H485.83V5154.47H520.403V5119.9ZM520.403 5119.9H693.5M520.403 5119.9V5292.98M520.403 4946.81H693.5M520.403 4946.81V4981.38H658.926V5119.9H693.5M693.5 4946.81V4912.24H658.926V4946.81H693.5ZM693.5 4946.81V5119.9M693.5 4946.81V4981.38H728.074V4946.81H693.5ZM693.5 4946.81H866.596M693.5 5119.9V5154.47H554.977V5292.98H520.403M693.5 5119.9H866.596M693.5 5119.9V5085.33H832.023V4946.81H866.596M693.5 5119.9V5292.98M693.5 5119.9H728.074V5258.41H866.596V5292.98M347.307 5292.98V5327.56H381.881V5292.98H347.307ZM347.307 5292.98H520.403M347.307 5292.98V5258.41H312.733V5292.98H347.307ZM347.307 5292.98H174.097M520.403 5292.98H693.5M693.5 5292.98V5258.41H658.926V5292.98H693.5ZM693.5 5292.98V5327.56H728.074V5292.98H693.5ZM693.5 5292.98H866.596M1 5639.16V5673.73H35.5738V5639.16H1ZM1 5639.16V5466.07M1 5639.16H174.097M1 5812.36H174.097M1 5812.36V5777.79H139.523V5639.27H174.097M1 5812.36V5985.45M1 5812.36H35.6875V5950.88H174.097V5985.45M174.097 5812.36V5639.27M174.097 5812.36H208.67V5777.79H174.097V5812.36ZM174.097 5812.36H139.523V5846.93H174.097V5812.36ZM174.097 5812.36V5985.45M174.097 5466.07H139.523V5500.64H174.097V5466.07ZM174.097 5466.07V5639.16M174.097 5466.07H1M174.097 5466.07V5292.98M174.097 5466.07H208.67V5431.5H174.097V5466.07ZM1 5466.07H35.6875V5604.59H174.097V5639.16M1 5466.07V5431.5H139.523V5292.98H174.097M1 4946.81V4981.38H35.5738V4946.81H1ZM1 4946.81H174.097M1 5119.9H174.097M1 5119.9V5085.33H139.523V4946.81H174.097M1 5119.9V5292.98M1 5119.9H35.6875V5258.41H174.097V5292.98M174.097 5119.9V4946.81M174.097 5119.9H208.67V5085.33H174.097V5119.9ZM174.097 5119.9H139.523V5154.47H174.097V5119.9ZM174.097 5119.9V5292.98M1 5292.98V5327.56H35.5738V5292.98H1ZM1 5292.98H174.097M1039.69 5639.16V5673.73H1074.27V5639.16H1039.69ZM1039.69 5639.16V5466.07M1039.69 5639.16H1212.79V5604.59H1074.38V5466.07H1039.69M1039.69 5639.16V5604.59H1005.12V5639.16H1039.69ZM1039.69 5812.36H1212.79V5639.27H1178.22V5777.79H1039.69V5812.36ZM1039.69 5812.36V5639.27H866.596M1039.69 5812.36H1005.12V5673.85H866.596V5639.27M1039.69 5812.36V5985.45M1039.69 5812.36H1074.38V5950.88H1212.79V5985.45M1039.69 5812.36H866.596M1039.69 5812.36V5846.93H901.17V5985.45H866.596M1212.9 5466.07H1178.33V5500.64H1212.9V5466.07ZM1212.9 5466.07H1386M1212.9 5466.07V5639.16H1247.48V5500.64H1386V5466.07M1212.9 5466.07H1247.48V5431.5H1212.9V5466.07ZM1039.69 5466.07H1212.79V5292.98M1039.69 5466.07V5431.5H1178.22V5292.98H1212.79M1039.69 5466.07H866.596M1039.69 5466.07V5500.64H901.17V5639.16H866.596M1039.69 5466.07V5292.98M1039.69 5466.07H1005.12V5327.56H866.596V5292.98M1386 5466.07V5292.98M1386 5466.07H1351.31V5327.56H1212.9V5292.98M1212.9 5812.36H1247.48V5777.79H1212.9V5812.36ZM1212.9 5812.36H1178.33V5846.93H1212.9V5812.36ZM1212.9 5812.36H1386M1212.9 5812.36V5985.45M1386 5812.36V5639.27H1212.9V5673.85H1351.31V5812.36H1386ZM1386 5812.36V5846.93H1247.48V5985.45H1212.9M1039.69 4946.81V4981.38H1074.27V4946.81H1039.69ZM1039.69 4946.81H1212.79M1039.69 4946.81V4912.24H1005.12V4946.81H1039.69ZM1039.69 4946.81V5119.9M1039.69 4946.81H866.596M1039.69 5119.9H1212.79V4946.81M1039.69 5119.9V5085.33H1178.22V4946.81H1212.79M1039.69 5119.9V5292.98M1039.69 5119.9H1074.38V5258.41H1212.79V5292.98M1039.69 5119.9H1005.12V4981.38H866.596V4946.81M1039.69 5119.9H866.596M1039.69 5119.9V5154.47H901.17V5292.98H866.596M1386 4946.81V4912.24H1351.31V4946.81H1386ZM1386 4946.81V5119.9M1386 4946.81H1212.9M1212.9 4946.81V4981.38H1351.31V5119.9H1386M1212.9 5119.9H1247.48V5085.33H1212.9V5119.9ZM1212.9 5119.9H1178.33V5154.47H1212.9V5119.9ZM1212.9 5119.9H1386M1212.9 5119.9V5292.98M1386 5119.9V5154.47H1247.48V5292.98H1212.9M1039.69 5292.98V5327.56H1074.27V5292.98H1039.69ZM1039.69 5292.98H1212.79M1039.69 5292.98V5258.41H1005.12V5292.98H1039.69ZM1039.69 5292.98H866.596M1386 5292.98V5258.41H1351.31V5292.98H1386ZM1386 5292.98H1212.9M866.596 5812.36V5639.27M866.596 5812.36H901.17V5777.79H866.596V5812.36ZM866.596 5812.36H832.023V5846.93H866.596V5812.36ZM866.596 5812.36V5985.45M866.596 5466.07H832.023V5500.64H866.596V5466.07ZM866.596 5466.07V5639.16M866.596 5466.07V5292.98M866.596 5466.07H901.17V5431.5H866.596V5466.07ZM866.596 5119.9V4946.81M866.596 5119.9H901.17V5085.33H866.596V5119.9ZM866.596 5119.9H832.023V5154.47H866.596V5119.9ZM866.596 5119.9V5292.98M347.307 6677.91V6712.48H381.881V6677.91H347.307ZM347.307 6677.91V6643.34H312.733V6677.91H347.307ZM347.307 6677.91V6851M347.307 6677.91H174.097M347.307 6851H520.403M347.307 6851V6816.43H485.83V6677.91H520.403M347.307 6851H312.619V6712.48H174.097V6677.91M520.403 6851V6677.91M520.403 6851H554.977V6816.43H520.403V6851ZM520.403 6677.91H693.5M520.403 6677.91V6712.48H658.926V6851H693.5M520.403 6504.71H485.83V6539.28H520.403V6504.71ZM520.403 6504.71H693.5M520.403 6504.71V6677.8M520.403 6504.71H347.307M520.403 6504.71V6331.62M520.403 6504.71H554.977V6470.14H520.403V6504.71ZM347.307 6504.71V6677.8H520.403M347.307 6504.71H381.881V6643.23H520.403V6677.8M347.307 6504.71V6470.14H485.83V6331.62H520.403M347.307 6504.71H174.097M347.307 6504.71H347.193V6539.4H208.67V6677.8H174.097M347.307 6504.71V6331.62M347.307 6504.71H312.619V6366.2H174.097V6331.62M520.403 6677.8H554.977V6539.4H693.5V6504.71M693.5 6677.91V6643.34H658.926V6677.91H693.5ZM693.5 6677.91V6851M693.5 6677.91V6712.48H728.074V6677.91H693.5ZM693.5 6504.71V6331.62M693.5 6504.71H658.926V6366.2H520.403V6331.62M693.5 6504.71V6677.8H866.596M693.5 6504.71H728.074V6643.23H866.596V6677.8M693.5 6504.71H866.596M693.5 6504.71V6470.14H832.023V6331.62H866.596M693.5 6851H866.596M693.5 6851V6816.43H832.023V6677.91H866.596M347.307 5985.45V6020.02H381.881V5985.45H347.307ZM347.307 5985.45H520.403M347.307 5985.45V5950.88H312.733V5985.45H347.307ZM347.307 5985.45V6158.54M347.307 5985.45H174.097M347.307 6158.54H520.403M347.307 6158.54V6123.96H485.83V5985.45H520.403M347.307 6158.54V6331.62M347.307 6158.54H381.881V6297.05H520.403V6331.62M347.307 6158.54H312.619V6020.02H174.097V5985.45M347.307 6158.54H174.097M347.307 6158.54H347.193V6193.11H208.67V6331.62H174.097M520.403 6158.54V5985.45M520.403 6158.54H554.977V6123.96H520.403V6158.54ZM520.403 6158.54H485.83V6193.11H520.403V6158.54ZM520.403 6158.54H693.5M520.403 6158.54V6331.62M520.403 5985.45H693.5M520.403 5985.45V6020.02H658.926V6158.54H693.5M693.5 5985.45V5950.88H658.926V5985.45H693.5ZM693.5 5985.45V6158.54M693.5 5985.45V6020.02H728.074V5985.45H693.5ZM693.5 5985.45H866.596M693.5 6158.54V6193.11H554.977V6331.62H520.403M693.5 6158.54H866.596M693.5 6158.54V6123.96H832.023V5985.45H866.596M693.5 6158.54V6331.62M693.5 6158.54H728.074V6297.05H866.596V6331.62M347.307 6331.62V6366.2H381.881V6331.62H347.307ZM347.307 6331.62H520.403M347.307 6331.62V6297.05H312.733V6331.62H347.307ZM347.307 6331.62H174.097M520.403 6331.62H693.5M693.5 6331.62V6297.05H658.926V6331.62H693.5ZM693.5 6331.62V6366.2H728.074V6331.62H693.5ZM693.5 6331.62H866.596M174.097 6851H1V6816.43H139.523V6677.91H174.097M174.097 6851V6677.91M174.097 6851H208.67V6816.43H174.097V6851ZM174.097 6504.71H139.523V6539.28H174.097V6504.71ZM174.097 6504.71V6677.8M174.097 6504.71H1M174.097 6504.71V6331.62M174.097 6504.71H208.67V6470.14H174.097V6504.71ZM1 6504.71V6677.8H174.097M1 6504.71H35.6875V6643.23H174.097V6677.8M1 6504.71V6470.14H139.523V6331.62H174.097M1 5985.45V6020.02H35.5738V5985.45H1ZM1 5985.45H174.097M1 6158.54H174.097M1 6158.54V6123.96H139.523V5985.45H174.097M1 6158.54V6331.62M1 6158.54H35.6875V6297.05H174.097V6331.62M174.097 6158.54V5985.45M174.097 6158.54H208.67V6123.96H174.097V6158.54ZM174.097 6158.54H139.523V6193.11H174.097V6158.54ZM174.097 6158.54V6331.62M1 6331.62V6366.2H35.5738V6331.62H1ZM1 6331.62H174.097M1039.69 6677.91V6712.48H1074.27V6677.91H1039.69ZM1039.69 6677.91V6643.34H1005.12V6677.91H1039.69ZM1039.69 6677.91V6851M1039.69 6677.91H866.596M1039.69 6851H1212.79V6677.91H1178.22V6816.43H1039.69V6851ZM1039.69 6851H1005.12V6712.48H866.596V6677.91M1212.9 6504.71H1178.33V6539.28H1212.9V6504.71ZM1212.9 6504.71H1386M1212.9 6504.71V6677.8H1247.48V6539.4H1386V6504.71M1212.9 6504.71H1247.48V6470.14H1212.9V6504.71ZM1039.69 6504.71V6677.8H1212.79V6643.23H1074.38V6504.71H1039.69ZM1039.69 6504.71H1212.79V6331.62M1039.69 6504.71V6470.14H1178.22V6331.62H1212.79M1039.69 6504.71H866.596M1039.69 6504.71V6539.4H901.17V6677.8H866.596M1039.69 6504.71V6331.62M1039.69 6504.71H1005.12V6366.2H866.596V6331.62M1386 6677.91V6643.34H1351.31V6677.91H1386ZM1386 6677.91V6851H1351.31V6712.48H1212.9V6677.91H1386ZM1386 6504.71V6331.62M1386 6504.71H1351.31V6366.2H1212.9V6331.62M1039.69 5985.45V6020.02H1074.27V5985.45H1039.69ZM1039.69 5985.45H1212.79M1039.69 5985.45V5950.88H1005.12V5985.45H1039.69ZM1039.69 5985.45V6158.54M1039.69 5985.45H866.596M1039.69 6158.54H1212.79V5985.45M1039.69 6158.54V6123.96H1178.22V5985.45H1212.79M1039.69 6158.54V6331.62M1039.69 6158.54H1074.38V6297.05H1212.79V6331.62M1039.69 6158.54H1005.12V6020.02H866.596V5985.45M1039.69 6158.54H866.596M1039.69 6158.54V6193.11H901.17V6331.62H866.596M1386 5985.45V5950.88H1351.31V5985.45H1386ZM1386 5985.45V6158.54M1386 5985.45H1212.9M1212.9 5985.45V6020.02H1351.31V6158.54H1386M1212.9 6158.54H1247.48V6123.96H1212.9V6158.54ZM1212.9 6158.54H1178.33V6193.11H1212.9V6158.54ZM1212.9 6158.54H1386M1212.9 6158.54V6331.62M1386 6158.54V6193.11H1247.48V6331.62H1212.9M1039.69 6331.62V6366.2H1074.27V6331.62H1039.69ZM1039.69 6331.62H1212.79M1039.69 6331.62V6297.05H1005.12V6331.62H1039.69ZM1039.69 6331.62H866.596M1386 6331.62V6297.05H1351.31V6331.62H1386ZM1386 6331.62H1212.9M866.596 6851V6677.91M866.596 6851H901.17V6816.43H866.596V6851ZM866.596 6504.71H832.023V6539.28H866.596V6504.71ZM866.596 6504.71V6677.8M866.596 6504.71V6331.62M866.596 6504.71H901.17V6470.14H866.596V6504.71ZM866.596 6158.54V5985.45M866.596 6158.54H901.17V6123.96H866.596V6158.54ZM866.596 6158.54H832.023V6193.11H866.596V6158.54ZM866.596 6158.54V6331.62M347.307 -488.505H451.142V-592.335H416.568V-523.077H347.307V-488.505ZM416.568 -765.536V-661.706H520.403V-696.278H451.142V-765.536H416.568ZM693.5 -696.278H589.665V-592.448H624.239V-661.706H693.5V-696.278ZM624.239 -419.361V-523.191H520.403V-488.619H589.665V-419.361H624.239ZM347.307 -1180.97H451.142V-1284.8H416.568V-1215.54H347.307V-1180.97ZM416.568 -1458V-1354.17H520.403V-1388.74H451.142V-1458H416.568ZM693.5 -1388.74H589.665V-1284.91H624.239V-1354.06H693.5V-1388.74ZM624.239 -1111.71V-1215.54H520.403V-1180.97H589.665V-1111.71H624.239ZM347.307 -834.794H451.142V-938.624H416.568V-869.366H347.307V-834.794ZM416.568 -1111.71V-1007.88H520.403V-1042.45H451.142V-1111.71H416.568ZM693.5 -1042.45H589.665V-938.624H624.239V-1007.88H693.5V-1042.45ZM624.239 -765.536V-869.366H520.403V-834.794H589.665V-765.536H624.239ZM1 -488.505H104.835V-592.335H70.2614V-523.077H1V-488.505ZM70.2614 -765.536V-661.706H174.097V-696.278H104.949V-765.536H70.2614ZM347.307 -696.278H243.472V-592.448H278.045V-661.706H347.307V-696.278ZM278.045 -419.361V-523.191H174.21V-488.619H243.472V-419.361H278.045ZM1 -1180.97H104.835V-1284.8H70.2614V-1215.54H1V-1180.97ZM70.2614 -1458V-1354.17H174.097V-1388.74H104.949V-1458H70.2614ZM347.307 -1388.74H243.472V-1284.91H278.045V-1354.06H347.307V-1388.74ZM278.045 -1111.71V-1215.54H174.21V-1180.97H243.472V-1111.71H278.045ZM1 -834.794H104.835V-938.624H70.2614V-869.366H1V-834.794ZM70.2614 -1111.71V-1007.88H174.097V-1042.45H104.949V-1111.71H70.2614ZM347.307 -1042.45H243.472V-938.624H278.045V-1007.88H347.307V-1042.45ZM278.045 -765.536V-869.366H174.21V-834.794H243.472V-765.536H278.045ZM1039.69 -488.505H1143.53V-592.335H1108.95V-523.077H1039.69V-488.505ZM1108.95 -765.536V-661.706H1212.79V-696.278H1143.53V-765.536H1108.95ZM1386 -696.278H1282.16V-592.448H1316.74V-661.706H1386V-696.278ZM1316.74 -419.361V-523.191H1212.9V-488.619H1282.16V-419.361H1316.74ZM1039.69 -1180.97H1143.53V-1284.8H1108.95V-1215.54H1039.69V-1180.97ZM1108.95 -1458V-1354.17H1212.79V-1388.74H1143.53V-1458H1108.95ZM1386 -1388.74H1282.16V-1284.91H1316.74V-1354.06H1386V-1388.74ZM1316.74 -1111.71V-1215.54H1212.9V-1180.97H1282.16V-1111.71H1316.74ZM1039.69 -834.794H1143.53V-938.624H1108.95V-869.366H1039.69V-834.794ZM1108.95 -1111.71V-1007.88H1212.79V-1042.45H1143.53V-1111.71H1108.95ZM1386 -1042.45H1282.16V-938.624H1316.74V-1007.88H1386V-1042.45ZM1316.74 -765.536V-869.366H1212.9V-834.794H1282.16V-765.536H1316.74ZM693.5 -488.505H797.335V-592.335H762.761V-523.077H693.5V-488.505ZM762.761 -765.536V-661.706H866.596V-696.278H797.335V-765.536H762.761ZM1039.69 -696.278H935.858V-592.448H970.432V-661.706H1039.69V-696.278ZM970.545 -419.361V-523.191H866.71V-488.619H935.972V-419.361H970.545ZM693.5 -1180.97H797.335V-1284.8H762.761V-1215.54H693.5V-1180.97ZM762.761 -1458V-1354.17H866.596V-1388.74H797.335V-1458H762.761ZM1039.69 -1388.74H935.858V-1284.91H970.432V-1354.06H1039.69V-1388.74ZM970.545 -1111.71V-1215.54H866.71V-1180.97H935.972V-1111.71H970.545ZM693.5 -834.794H797.335V-938.624H762.761V-869.366H693.5V-834.794ZM762.761 -1111.71V-1007.88H866.596V-1042.45H797.335V-1111.71H762.761ZM1039.69 -1042.45H935.858V-938.624H970.432V-1007.88H1039.69V-1042.45ZM970.545 -765.536V-869.366H866.71V-834.794H935.972V-765.536H970.545ZM347.307 550.135H451.142V446.305H416.568V515.562H347.307V550.135ZM416.568 273.103V376.933H520.403V342.361H451.142V273.103H416.568ZM693.5 342.361H589.665V446.191H624.239V376.933H693.5V342.361ZM624.239 619.392V515.449H520.403V550.021H589.665V619.279H624.239V619.392ZM347.307 -142.33H451.142V-246.159H416.568V-176.902H347.307V-142.33ZM416.568 -419.361V-315.531H520.403V-350.103H451.142V-419.361H416.568ZM693.5 -350.103H589.665V-246.273H624.239V-315.531H693.5V-350.103ZM624.239 -73.0718V-176.902H520.403V-142.33H589.665V-73.0718H624.239ZM347.307 203.846H451.142V100.016H416.568V169.274H347.307V203.846ZM416.568 -73.0718V30.7581H520.403V-3.81396H451.142V-73.0718H416.568ZM693.5 -3.81396H589.665V100.016H624.239V30.7581H693.5V-3.81396ZM624.239 273.103V169.274H520.403V203.846H589.665V273.103H624.239ZM1 550.135H104.835V446.305H70.2614V515.562H1V550.135ZM70.2614 273.103V376.933H174.097V342.361H104.949V273.103H70.2614ZM347.307 342.361H243.472V446.191H278.045V376.933H347.307V342.361ZM278.045 619.392V515.449H174.21V550.021H243.472V619.279H278.045V619.392ZM1 -246.159V-211.587H35.5738V-246.159H1ZM1 -142.33H104.835V-246.159H70.2614V-176.902H1V-142.33ZM70.2614 -419.361V-315.531H174.097V-350.103H104.949V-419.361H70.2614ZM347.307 -350.103H243.472V-246.273H278.045V-315.531H347.307V-350.103ZM278.045 -73.0718V-176.902H174.21V-142.33H243.472V-73.0718H278.045ZM1 203.846H104.835V100.016H70.2614V169.274H1V203.846ZM70.2614 -73.0718V30.7581H174.097V-3.81396H104.949V-73.0718H70.2614ZM347.307 -3.81396H243.472V100.016H278.045V30.7581H347.307V-3.81396ZM278.045 273.103V169.274H174.21V203.846H243.472V273.103H278.045ZM1039.69 550.135H1143.53V446.305H1108.95V515.562H1039.69V550.135ZM1108.95 273.103V376.933H1212.79V342.361H1143.53V273.103H1108.95ZM1386 446.191V411.619H1351.31V446.191H1386ZM1386 342.361H1282.16V446.191H1316.74V376.933H1386V342.361ZM1316.74 619.392V515.449H1212.9V550.021H1282.16V619.279H1316.74V619.392ZM1039.69 -142.33H1143.53V-246.159H1108.95V-176.902H1039.69V-142.33ZM1108.95 -419.361V-315.531H1212.79V-350.103H1143.53V-419.361H1108.95ZM1386 -350.103H1282.16V-246.273H1316.74V-315.531H1386V-350.103ZM1316.74 -73.0718V-176.902H1212.9V-142.33H1282.16V-73.0718H1316.74ZM1039.69 203.846H1143.53V100.016H1108.95V169.274H1039.69V203.846ZM1108.95 -73.0718V30.7581H1212.79V-3.81396H1143.53V-73.0718H1108.95ZM1386 -3.81396H1282.16V100.016H1316.74V30.7581H1386V-3.81396ZM1316.74 273.103V169.274H1212.9V203.846H1282.16V273.103H1316.74ZM693.5 550.135H797.335V446.305H762.761V515.562H693.5V550.135ZM762.761 273.103V376.933H866.596V342.361H797.335V273.103H762.761ZM1039.69 342.361H935.858V446.191H970.432V376.933H1039.69V342.361ZM970.545 619.392V515.449H866.71V550.021H935.972V619.279H970.545V619.392ZM693.5 -142.33H797.335V-246.159H762.761V-176.902H693.5V-142.33ZM762.761 -419.361V-315.531H866.596V-350.103H797.335V-419.361H762.761ZM1039.69 -350.103H935.858V-246.273H970.432V-315.531H1039.69V-350.103ZM970.545 -73.0718V-176.902H866.71V-142.33H935.972V-73.0718H970.545ZM693.5 203.846H797.335V100.016H762.761V169.274H693.5V203.846ZM762.761 -73.0718V30.7581H866.596V-3.81396H797.335V-73.0718H762.761ZM1039.69 -3.81396H935.858V100.016H970.432V30.7581H1039.69V-3.81396ZM970.545 273.103V169.274H866.71V203.846H935.972V273.103H970.545ZM347.307 1588.77H451.142V1484.94H416.568V1554.2H347.307V1588.77ZM416.568 1311.74V1415.57H520.403V1381H451.142V1311.74H416.568ZM693.5 1381H589.665V1484.83H624.239V1415.57H693.5V1381ZM624.239 1658.03V1554.2H520.403V1588.77H589.665V1658.03H624.239ZM347.307 896.31H451.142V792.48H416.568V861.738H347.307V896.31ZM416.568 619.392V723.222H520.403V688.65H451.142V619.392H416.568ZM693.5 688.536H589.665V792.366H624.239V723.108H693.5V688.536ZM624.239 965.568V861.738H520.403V896.31H589.665V965.568H624.239ZM347.307 1242.48H451.142V1138.66H416.568V1207.91H347.307V1242.48ZM416.568 965.568V1069.4H520.403V1034.83H451.142V965.568H416.568ZM693.5 1034.83H589.665V1138.66H624.239V1069.4H693.5V1034.83ZM624.239 1311.74V1207.91H520.403V1242.48H589.665V1311.74H624.239ZM1 1588.77H104.835V1484.94H70.2614V1554.2H1V1588.77ZM70.2614 1311.74V1415.57H174.097V1381H104.949V1311.74H70.2614ZM347.307 1381H243.472V1484.83H278.045V1415.57H347.307V1381ZM278.045 1658.03V1554.2H174.21V1588.77H243.472V1658.03H278.045ZM1 896.31H104.835V792.48H70.2614V861.738H1V896.31ZM70.2614 619.392V723.222H174.097V688.65H104.949V619.392H70.2614ZM347.307 688.536H243.472V792.366H278.045V723.108H347.307V688.536ZM278.045 965.568V861.738H174.21V896.31H243.472V965.568H278.045ZM1 1242.48H104.835V1138.66H70.2614V1207.91H1V1242.48ZM70.2614 965.568V1069.4H174.097V1034.83H104.949V965.568H70.2614ZM347.307 1034.83H243.472V1138.66H278.045V1069.4H347.307V1034.83ZM278.045 1311.74V1207.91H174.21V1242.48H243.472V1311.74H278.045ZM1039.69 1588.77H1143.53V1484.94H1108.95V1554.2H1039.69V1588.77ZM1108.95 1311.74V1415.57H1212.79V1381H1143.53V1311.74H1108.95ZM1386 1484.83V1450.26H1351.31V1484.83H1386ZM1386 1381H1282.16V1484.83H1316.74V1415.57H1386V1381ZM1316.74 1658.03V1554.2H1212.9V1588.77H1282.16V1658.03H1316.74ZM1039.69 896.31H1143.53V792.48H1108.95V861.738H1039.69V896.31ZM1108.95 619.392V723.222H1212.79V688.65H1143.53V619.392H1108.95ZM1386 688.536H1282.16V792.366H1316.74V723.108H1386V688.536ZM1316.74 965.568V861.738H1212.9V896.31H1282.16V965.568H1316.74ZM1039.69 1242.48H1143.53V1138.66H1108.95V1207.91H1039.69V1242.48ZM1108.95 965.568V1069.4H1212.79V1034.83H1143.53V965.568H1108.95ZM1386 1034.83H1282.16V1138.66H1316.74V1069.4H1386V1034.83ZM1316.74 1311.74V1207.91H1212.9V1242.48H1282.16V1311.74H1316.74ZM693.5 1588.77H797.335V1484.94H762.761V1554.2H693.5V1588.77ZM762.761 1311.74V1415.57H866.596V1381H797.335V1311.74H762.761ZM1039.69 1381H935.858V1484.83H970.432V1415.57H1039.69V1381ZM970.545 1658.03V1554.2H866.71V1588.77H935.972V1658.03H970.545ZM693.5 896.31H797.335V792.48H762.761V861.738H693.5V896.31ZM762.761 619.392V723.222H866.596V688.65H797.335V619.392H762.761ZM1039.69 688.536H935.858V792.366H970.432V723.108H1039.69V688.536ZM970.545 965.568V861.738H866.71V896.31H935.972V965.568H970.545ZM693.5 1242.48H797.335V1138.66H762.761V1207.91H693.5V1242.48ZM762.761 965.568V1069.4H866.596V1034.83H797.335V965.568H762.761ZM1039.69 1034.83H935.858V1138.66H970.432V1069.4H1039.69V1034.83ZM970.545 1311.74V1207.91H866.71V1242.48H935.972V1311.74H970.545ZM347.307 2627.41H451.142V2523.58H416.568V2592.84H347.307V2627.41ZM416.568 2350.38V2454.21H520.403V2419.64H451.142V2350.38H416.568ZM693.5 2419.64H589.665V2523.47H624.239V2454.21H693.5V2419.64ZM624.239 2696.67V2592.84H520.403V2627.41H589.665V2696.67H624.239ZM347.307 1934.95H451.142V1831.12H416.568V1900.38H347.307V1934.95ZM416.568 1658.03V1761.86H520.403V1727.29H451.142V1658.03H416.568ZM693.5 1727.18H589.665V1831.01H624.239V1761.86H693.5V1727.18ZM624.239 2004.21V1900.38H520.403V1934.95H589.665V2004.21H624.239ZM347.307 2281.12H451.142V2177.29H416.568V2246.55H347.307V2281.12ZM416.568 2004.21V2108.04H520.403V2073.46H451.142V2004.21H416.568ZM693.5 2073.46H589.665V2177.29H624.239V2108.04H693.5V2073.46ZM624.239 2350.38V2246.55H520.403V2281.12H589.665V2350.38H624.239ZM1 2523.58V2558.16H35.5738V2523.58H1ZM1 2627.41H104.835V2523.58H70.2614V2592.84H1V2627.41ZM70.2614 2350.38V2454.21H174.097V2419.64H104.949V2350.38H70.2614ZM347.307 2419.64H243.472V2523.47H278.045V2454.21H347.307V2419.64ZM278.045 2696.67V2592.84H174.21V2627.41H243.472V2696.67H278.045ZM1 1934.95H104.835V1831.12H70.2614V1900.38H1V1934.95ZM70.2614 1658.03V1761.86H174.097V1727.29H104.949V1658.03H70.2614ZM347.307 1727.18H243.472V1831.01H278.045V1761.86H347.307V1727.18ZM278.045 2004.21V1900.38H174.21V1934.95H243.472V2004.21H278.045ZM1 2281.12H104.835V2177.29H70.2614V2246.55H1V2281.12ZM70.2614 2004.21V2108.04H174.097V2073.46H104.949V2004.21H70.2614ZM347.307 2073.46H243.472V2177.29H278.045V2108.04H347.307V2073.46ZM278.045 2350.38V2246.55H174.21V2281.12H243.472V2350.38H278.045ZM1039.69 2627.41H1143.53V2523.58H1108.95V2592.84H1039.69V2627.41ZM1108.95 2350.38V2454.21H1212.79V2419.64H1143.53V2350.38H1108.95ZM1386 2419.64H1282.16V2523.47H1316.74V2454.21H1386V2419.64ZM1212.9 2696.67H1247.48V2662.1H1212.9V2696.67ZM1316.74 2696.67V2592.84H1212.9V2627.41H1282.16V2696.67H1316.74ZM1039.69 1934.95H1143.53V1831.12H1108.95V1900.38H1039.69V1934.95ZM1108.95 1658.03V1761.86H1212.79V1727.29H1143.53V1658.03H1108.95ZM1386 1727.18H1282.16V1831.01H1316.74V1761.86H1386V1727.18ZM1316.74 2004.21V1900.38H1212.9V1934.95H1282.16V2004.21H1316.74ZM1039.69 2281.12H1143.53V2177.29H1108.95V2246.55H1039.69V2281.12ZM1108.95 2004.21V2108.04H1212.79V2073.46H1143.53V2004.21H1108.95ZM1386 2073.46H1282.16V2177.29H1316.74V2108.04H1386V2073.46ZM1316.74 2350.38V2246.55H1212.9V2281.12H1282.16V2350.38H1316.74ZM693.5 2627.41H797.335V2523.58H762.761V2592.84H693.5V2627.41ZM762.761 2350.38V2454.21H866.596V2419.64H797.335V2350.38H762.761ZM1039.69 2419.64H935.858V2523.47H970.432V2454.21H1039.69V2419.64ZM970.545 2696.67V2592.84H866.71V2627.41H935.972V2696.67H970.545ZM693.5 1934.95H797.335V1831.12H762.761V1900.38H693.5V1934.95ZM762.761 1658.03V1761.86H866.596V1727.29H797.335V1658.03H762.761ZM1039.69 1727.18H935.858V1831.01H970.432V1761.86H1039.69V1727.18ZM970.545 2004.21V1900.38H866.71V1934.95H935.972V2004.21H970.545ZM693.5 2281.12H797.335V2177.29H762.761V2246.55H693.5V2281.12ZM762.761 2004.21V2108.04H866.596V2073.46H797.335V2004.21H762.761ZM1039.69 2073.46H935.858V2177.29H970.432V2108.04H1039.69V2073.46ZM970.545 2350.38V2246.55H866.71V2281.12H935.972V2350.38H970.545ZM347.307 3665.82H451.142V3562H416.568V3631.25H347.307V3665.82ZM416.568 3388.79V3492.62H520.403V3458.05H451.142V3388.79H416.568ZM693.5 3458.05H589.665V3561.88H624.239V3492.62H693.5V3458.05ZM624.239 3734.97V3631.14H520.403V3665.71H589.665V3734.97H624.239ZM347.307 2973.36H451.142V2869.53H416.568V2938.79H347.307V2973.36ZM416.568 2696.33V2800.16H520.403V2765.59H451.142V2696.33H416.568ZM693.5 2765.59H589.665V2869.42H624.239V2800.27H693.5V2765.59ZM624.239 3042.62V2938.79H520.403V2973.36H589.665V3042.62H624.239ZM347.307 3319.54H451.142V3215.71H416.568V3284.96H347.307V3319.54ZM416.568 3042.62V3146.45H520.403V3111.88H451.142V3042.62H416.568ZM693.5 3111.88H589.665V3215.71H624.239V3146.45H693.5V3111.88ZM624.239 3388.79V3284.96H520.403V3319.54H589.665V3388.79H624.239ZM1 3665.82H104.835V3562H70.2614V3631.25H1V3665.82ZM70.2614 3388.79V3492.62H174.097V3458.05H104.949V3388.79H70.2614ZM347.307 3458.05H243.472V3561.88H278.045V3492.62H347.307V3458.05ZM278.045 3734.97V3631.14H174.21V3665.71H243.472V3734.97H278.045ZM1 2973.36H104.835V2869.53H70.2614V2938.79H1V2973.36ZM70.2614 2696.33V2800.16H174.097V2765.59H104.949V2696.33H70.2614ZM347.307 2765.59H243.472V2869.42H278.045V2800.27H347.307V2765.59ZM278.045 3042.62V2938.79H174.21V2973.36H243.472V3042.62H278.045ZM1 3319.54H104.835V3215.71H70.2614V3284.96H1V3319.54ZM70.2614 3042.62V3146.45H174.097V3111.88H104.949V3042.62H70.2614ZM347.307 3111.88H243.472V3215.71H278.045V3146.45H347.307V3111.88ZM278.045 3388.79V3284.96H174.21V3319.54H243.472V3388.79H278.045ZM1039.69 3665.82H1143.53V3562H1108.95V3631.25H1039.69V3665.82ZM1108.95 3388.79V3492.62H1212.79V3458.05H1143.53V3388.79H1108.95ZM1386 3458.05H1282.16V3561.88H1316.74V3492.62H1386V3458.05ZM1316.74 3734.97V3631.14H1212.9V3665.71H1282.16V3734.97H1316.74ZM1039.69 2973.36H1143.53V2869.53H1108.95V2938.79H1039.69V2973.36ZM1108.95 2696.33V2800.16H1212.79V2765.59H1143.53V2696.33H1108.95ZM1386 2765.59H1282.16V2869.42H1316.74V2800.27H1386V2765.59ZM1316.74 3042.62V2938.79H1212.9V2973.36H1282.16V3042.62H1316.74ZM1039.69 3319.54H1143.53V3215.71H1108.95V3284.96H1039.69V3319.54ZM1108.95 3042.62V3146.45H1212.79V3111.88H1143.53V3042.62H1108.95ZM1386 3111.88H1282.16V3215.71H1316.74V3146.45H1386V3111.88ZM1316.74 3388.79V3284.96H1212.9V3319.54H1282.16V3388.79H1316.74ZM693.5 3665.82H797.335V3562H762.761V3631.25H693.5V3665.82ZM762.761 3388.79V3492.62H866.596V3458.05H797.335V3388.79H762.761ZM1039.69 3458.05H935.858V3561.88H970.432V3492.62H1039.69V3458.05ZM970.545 3734.97V3631.14H866.71V3665.71H935.972V3734.97H970.545ZM693.5 2973.36H797.335V2869.53H762.761V2938.79H693.5V2973.36ZM762.761 2696.33V2800.16H866.596V2765.59H797.335V2696.33H762.761ZM1039.69 2765.59H935.858V2869.42H970.432V2800.27H1039.69V2765.59ZM970.545 3042.62V2938.79H866.71V2973.36H935.972V3042.62H970.545ZM693.5 3319.54H797.335V3215.71H762.761V3284.96H693.5V3319.54ZM762.761 3042.62V3146.45H866.596V3111.88H797.335V3042.62H762.761ZM1039.69 3111.88H935.858V3215.71H970.432V3146.45H1039.69V3111.88ZM970.545 3388.79V3284.96H866.71V3319.54H935.972V3388.79H970.545ZM347.307 4704.46H451.142V4600.63H416.568V4669.89H347.307V4704.46ZM416.568 4427.43V4531.26H520.403V4496.69H451.142V4427.43H416.568ZM693.5 4496.69H589.665V4600.52H624.239V4531.26H693.5V4496.69ZM624.239 4773.72V4669.78H520.403V4704.35H589.665V4773.61H624.239V4773.72ZM347.307 4012H451.142V3908.17H416.568V3977.43H347.307V4012ZM416.568 3734.97V3838.8H520.403V3804.23H451.142V3734.97H416.568ZM693.5 3804.23H589.665V3908.06H624.239V3838.8H693.5V3804.23ZM624.239 4081.26V3977.43H520.403V4012H589.665V4081.26H624.239ZM347.307 4358.17H451.142V4254.35H416.568V4323.6H347.307V4358.17ZM416.568 4081.26V4185.09H520.403V4150.52H451.142V4081.26H416.568ZM693.5 4150.52H589.665V4254.35H624.239V4185.09H693.5V4150.52ZM624.239 4427.43V4323.6H520.403V4358.17H589.665V4427.43H624.239ZM1 4704.46H104.835V4600.63H70.2614V4669.89H1V4704.46ZM70.2614 4427.43V4531.26H174.097V4496.69H104.949V4427.43H70.2614ZM347.307 4496.69H243.472V4600.52H278.045V4531.26H347.307V4496.69ZM278.045 4773.72V4669.78H174.21V4704.35H243.472V4773.61H278.045V4773.72ZM1 3908.17V3942.74H35.5738V3908.17H1ZM1 4012H104.835V3908.17H70.2614V3977.43H1V4012ZM70.2614 3734.97V3838.8H174.097V3804.23H104.949V3734.97H70.2614ZM347.307 3804.23H243.472V3908.06H278.045V3838.8H347.307V3804.23ZM278.045 4081.26V3977.43H174.21V4012H243.472V4081.26H278.045ZM1 4358.17H104.835V4254.35H70.2614V4323.6H1V4358.17ZM70.2614 4081.26V4185.09H174.097V4150.52H104.949V4081.26H70.2614ZM347.307 4150.52H243.472V4254.35H278.045V4185.09H347.307V4150.52ZM278.045 4427.43V4323.6H174.21V4358.17H243.472V4427.43H278.045ZM1039.69 4704.46H1143.53V4600.63H1108.95V4669.89H1039.69V4704.46ZM1108.95 4427.43V4531.26H1212.79V4496.69H1143.53V4427.43H1108.95ZM1386 4600.52V4565.95H1351.31V4600.52H1386ZM1386 4496.69H1282.16V4600.52H1316.74V4531.26H1386V4496.69ZM1316.74 4773.72V4669.78H1212.9V4704.35H1282.16V4773.61H1316.74V4773.72ZM1039.69 4012H1143.53V3908.17H1108.95V3977.43H1039.69V4012ZM1108.95 3734.97V3838.8H1212.79V3804.23H1143.53V3734.97H1108.95ZM1386 3804.23H1282.16V3908.06H1316.74V3838.8H1386V3804.23ZM1316.74 4081.26V3977.43H1212.9V4012H1282.16V4081.26H1316.74ZM1039.69 4358.17H1143.53V4254.35H1108.95V4323.6H1039.69V4358.17ZM1108.95 4081.26V4185.09H1212.79V4150.52H1143.53V4081.26H1108.95ZM1386 4150.52H1282.16V4254.35H1316.74V4185.09H1386V4150.52ZM1316.74 4427.43V4323.6H1212.9V4358.17H1282.16V4427.43H1316.74ZM693.5 4704.46H797.335V4600.63H762.761V4669.89H693.5V4704.46ZM762.761 4427.43V4531.26H866.596V4496.69H797.335V4427.43H762.761ZM1039.69 4496.69H935.858V4600.52H970.432V4531.26H1039.69V4496.69ZM970.545 4773.72V4669.78H866.71V4704.35H935.972V4773.61H970.545V4773.72ZM693.5 4012H797.335V3908.17H762.761V3977.43H693.5V4012ZM762.761 3734.97V3838.8H866.596V3804.23H797.335V3734.97H762.761ZM1039.69 3804.23H935.858V3908.06H970.432V3838.8H1039.69V3804.23ZM970.545 4081.26V3977.43H866.71V4012H935.972V4081.26H970.545ZM693.5 4358.17H797.335V4254.35H762.761V4323.6H693.5V4358.17ZM762.761 4081.26V4185.09H866.596V4150.52H797.335V4081.26H762.761ZM1039.69 4150.52H935.858V4254.35H970.432V4185.09H1039.69V4150.52ZM970.545 4427.43V4323.6H866.71V4358.17H935.972V4427.43H970.545ZM347.307 5743.1H451.142V5639.27H416.568V5708.53H347.307V5743.1ZM416.568 5466.07V5569.9H520.403V5535.33H451.142V5466.07H416.568ZM693.5 5535.33H589.665V5639.16H624.239V5569.9H693.5V5535.33ZM624.239 5812.36V5708.53H520.403V5743.1H589.665V5812.36H624.239ZM347.307 5050.64H451.142V4946.81H416.568V5016.07H347.307V5050.64ZM416.568 4773.72V4877.55H520.403V4842.98H451.142V4773.72H416.568ZM693.5 4842.87H589.665V4946.7H624.239V4877.44H693.5V4842.87ZM624.239 5119.9V5016.07H520.403V5050.64H589.665V5119.9H624.239ZM347.307 5396.81H451.142V5292.98H416.568V5362.24H347.307V5396.81ZM416.568 5119.9V5223.73H520.403V5189.15H451.142V5119.9H416.568ZM693.5 5189.15H589.665V5292.98H624.239V5223.73H693.5V5189.15ZM624.239 5466.07V5362.24H520.403V5396.81H589.665V5466.07H624.239ZM1 5743.1H104.835V5639.27H70.2614V5708.53H1V5743.1ZM70.2614 5466.07V5569.9H174.097V5535.33H104.949V5466.07H70.2614ZM347.307 5535.33H243.472V5639.16H278.045V5569.9H347.307V5535.33ZM278.045 5812.36V5708.53H174.21V5743.1H243.472V5812.36H278.045ZM1 5050.64H104.835V4946.81H70.2614V5016.07H1V5050.64ZM70.2614 4773.72V4877.55H174.097V4842.98H104.949V4773.72H70.2614ZM347.307 4842.87H243.472V4946.7H278.045V4877.44H347.307V4842.87ZM278.045 5119.9V5016.07H174.21V5050.64H243.472V5119.9H278.045ZM1 5396.81H104.835V5292.98H70.2614V5362.24H1V5396.81ZM70.2614 5119.9V5223.73H174.097V5189.15H104.949V5119.9H70.2614ZM347.307 5189.15H243.472V5292.98H278.045V5223.73H347.307V5189.15ZM278.045 5466.07V5362.24H174.21V5396.81H243.472V5466.07H278.045ZM1039.69 5743.1H1143.53V5639.27H1108.95V5708.53H1039.69V5743.1ZM1108.95 5466.07V5569.9H1212.79V5535.33H1143.53V5466.07H1108.95ZM1386 5639.16V5604.59H1351.31V5639.16H1386ZM1386 5535.33H1282.16V5639.16H1316.74V5569.9H1386V5535.33ZM1316.74 5812.36V5708.53H1212.9V5743.1H1282.16V5812.36H1316.74ZM1039.69 5050.64H1143.53V4946.81H1108.95V5016.07H1039.69V5050.64ZM1108.95 4773.72V4877.55H1212.79V4842.98H1143.53V4773.72H1108.95ZM1386 4842.87H1282.16V4946.7H1316.74V4877.44H1386V4842.87ZM1316.74 5119.9V5016.07H1212.9V5050.64H1282.16V5119.9H1316.74ZM1039.69 5396.81H1143.53V5292.98H1108.95V5362.24H1039.69V5396.81ZM1108.95 5119.9V5223.73H1212.79V5189.15H1143.53V5119.9H1108.95ZM1386 5189.15H1282.16V5292.98H1316.74V5223.73H1386V5189.15ZM1316.74 5466.07V5362.24H1212.9V5396.81H1282.16V5466.07H1316.74ZM693.5 5743.1H797.335V5639.27H762.761V5708.53H693.5V5743.1ZM762.761 5466.07V5569.9H866.596V5535.33H797.335V5466.07H762.761ZM1039.69 5535.33H935.858V5639.16H970.432V5569.9H1039.69V5535.33ZM970.545 5812.36V5708.53H866.71V5743.1H935.972V5812.36H970.545ZM693.5 5050.64H797.335V4946.81H762.761V5016.07H693.5V5050.64ZM762.761 4773.72V4877.55H866.596V4842.98H797.335V4773.72H762.761ZM1039.69 4842.87H935.858V4946.7H970.432V4877.44H1039.69V4842.87ZM970.545 5119.9V5016.07H866.71V5050.64H935.972V5119.9H970.545ZM693.5 5396.81H797.335V5292.98H762.761V5362.24H693.5V5396.81ZM762.761 5119.9V5223.73H866.596V5189.15H797.335V5119.9H762.761ZM1039.69 5189.15H935.858V5292.98H970.432V5223.73H1039.69V5189.15ZM970.545 5466.07V5362.24H866.71V5396.81H935.972V5466.07H970.545ZM347.307 6781.74H451.142V6677.91H416.568V6747.17H347.307V6781.74ZM416.568 6504.71V6608.54H520.403V6573.97H451.142V6504.71H416.568ZM693.5 6573.97H589.665V6677.8H624.239V6608.54H693.5V6573.97ZM624.239 6851V6747.17H520.403V6781.74H589.665V6851H624.239ZM347.307 6089.28H451.142V5985.45H416.568V6054.71H347.307V6089.28ZM416.568 5812.36V5916.19H520.403V5881.62H451.142V5812.36H416.568ZM693.5 5881.5H589.665V5985.33H624.239V5916.19H693.5V5881.5ZM624.239 6158.54V6054.71H520.403V6089.28H589.665V6158.54H624.239ZM347.307 6435.45H451.142V6331.62H416.568V6400.88H347.307V6435.45ZM416.568 6158.54V6262.37H520.403V6227.79H451.142V6158.54H416.568ZM693.5 6227.79H589.665V6331.62H624.239V6262.37H693.5V6227.79ZM624.239 6504.71V6400.88H520.403V6435.45H589.665V6504.71H624.239ZM1 6677.91V6712.48H35.5738V6677.91H1ZM1 6781.74H104.835V6677.91H70.2614V6747.17H1V6781.74ZM70.2614 6504.71V6608.54H174.097V6573.97H104.949V6504.71H70.2614ZM347.307 6573.97H243.472V6677.8H278.045V6608.54H347.307V6573.97ZM278.045 6851V6747.17H174.21V6781.74H243.472V6851H278.045ZM1 6089.28H104.835V5985.45H70.2614V6054.71H1V6089.28ZM70.2614 5812.36V5916.19H174.097V5881.62H104.949V5812.36H70.2614ZM347.307 5881.5H243.472V5985.33H278.045V5916.19H347.307V5881.5ZM278.045 6158.54V6054.71H174.21V6089.28H243.472V6158.54H278.045ZM1 6435.45H104.835V6331.62H70.2614V6400.88H1V6435.45ZM70.2614 6158.54V6262.37H174.097V6227.79H104.949V6158.54H70.2614ZM347.307 6227.79H243.472V6331.62H278.045V6262.37H347.307V6227.79ZM278.045 6504.71V6400.88H174.21V6435.45H243.472V6504.71H278.045ZM1039.69 6781.74H1143.53V6677.91H1108.95V6747.17H1039.69V6781.74ZM1108.95 6504.71V6608.54H1212.79V6573.97H1143.53V6504.71H1108.95ZM1386 6573.97H1282.16V6677.8H1316.74V6608.54H1386V6573.97ZM1212.9 6851H1247.48V6816.43H1212.9V6851ZM1316.74 6851V6747.17H1212.9V6781.74H1282.16V6851H1316.74ZM1039.69 6089.28H1143.53V5985.45H1108.95V6054.71H1039.69V6089.28ZM1108.95 5812.36V5916.19H1212.79V5881.62H1143.53V5812.36H1108.95ZM1386 5881.5H1282.16V5985.33H1316.74V5916.19H1386V5881.5ZM1316.74 6158.54V6054.71H1212.9V6089.28H1282.16V6158.54H1316.74ZM1039.69 6435.45H1143.53V6331.62H1108.95V6400.88H1039.69V6435.45ZM1108.95 6158.54V6262.37H1212.79V6227.79H1143.53V6158.54H1108.95ZM1386 6227.79H1282.16V6331.62H1316.74V6262.37H1386V6227.79ZM1316.74 6504.71V6400.88H1212.9V6435.45H1282.16V6504.71H1316.74ZM693.5 6781.74H797.335V6677.91H762.761V6747.17H693.5V6781.74ZM762.761 6504.71V6608.54H866.596V6573.97H797.335V6504.71H762.761ZM1039.69 6573.97H935.858V6677.8H970.432V6608.54H1039.69V6573.97ZM970.545 6851V6747.17H866.71V6781.74H935.972V6851H970.545ZM693.5 6089.28H797.335V5985.45H762.761V6054.71H693.5V6089.28ZM762.761 5812.36V5916.19H866.596V5881.62H797.335V5812.36H762.761ZM1039.69 5881.5H935.858V5985.33H970.432V5916.19H1039.69V5881.5ZM970.545 6158.54V6054.71H866.71V6089.28H935.972V6158.54H970.545ZM693.5 6435.45H797.335V6331.62H762.761V6400.88H693.5V6435.45ZM762.761 6158.54V6262.37H866.596V6227.79H797.335V6158.54H762.761ZM1039.69 6227.79H935.858V6331.62H970.432V6262.37H1039.69V6227.79ZM970.545 6504.71V6400.88H866.71V6435.45H935.972V6504.71H970.545Z" stroke="#F2F2F2" stroke-width="2" stroke-miterlimit="10"/>
</svg>
