<svg width="53" height="53" viewBox="0 0 53 53" fill="none" xmlns="http://www.w3.org/2000/svg">
<path d="M12.9976 46.0527C19.4641 46.0527 24.7062 37.2987 24.7062 26.5001C24.7062 15.7015 19.4641 6.94751 12.9976 6.94751C6.53117 6.94751 1.28906 15.7015 1.28906 26.5001C1.28906 37.2987 6.53117 46.0527 12.9976 46.0527Z" fill="#F5F8FA"/>
<path d="M12.9963 47.1568C5.8119 47.1568 0.183594 38.0835 0.183594 26.5C0.183594 14.9166 5.8119 5.84326 12.9963 5.84326C20.1808 5.84326 25.8091 14.9166 25.8091 26.5C25.8091 38.0835 20.1808 47.1568 12.9963 47.1568ZM12.9963 8.05159C7.14868 8.05159 2.39193 16.327 2.39193 26.5C2.39193 36.6731 7.14868 44.9484 12.9963 44.9484C18.844 44.9484 23.6008 36.6731 23.6008 26.5C23.6008 16.327 18.844 8.05159 12.9963 8.05159Z" fill="#E1E8ED"/>
<path d="M9.70847 33.8022C13.7414 33.8022 17.0107 30.5329 17.0107 26.5C17.0107 22.4671 13.7414 19.1978 9.70847 19.1978C5.67557 19.1978 2.40625 22.4671 2.40625 26.5C2.40625 30.5329 5.67557 33.8022 9.70847 33.8022Z" fill="#8899A6"/>
<path d="M9.70746 31.7484C12.6061 31.7484 14.9559 29.3986 14.9559 26.4999C14.9559 23.6013 12.6061 21.2515 9.70746 21.2515C6.80881 21.2515 4.45898 23.6013 4.45898 26.4999C4.45898 29.3986 6.80881 31.7484 9.70746 31.7484Z" fill="#292F33"/>
<path d="M11.6463 24.835C12.8057 24.835 13.7457 23.8951 13.7457 22.7356C13.7457 21.5762 12.8057 20.6362 11.6463 20.6362C10.4868 20.6362 9.54688 21.5762 9.54688 22.7356C9.54688 23.8951 10.4868 24.835 11.6463 24.835Z" fill="#F5F8FA"/>
<path d="M40.0953 46.0527C46.5618 46.0527 51.8039 37.2987 51.8039 26.5001C51.8039 15.7015 46.5618 6.94751 40.0953 6.94751C33.6288 6.94751 28.3867 15.7015 28.3867 26.5001C28.3867 37.2987 33.6288 46.0527 40.0953 46.0527Z" fill="#F5F8FA"/>
<path d="M40.094 47.1568C32.9096 47.1568 27.2812 38.0835 27.2812 26.5C27.2812 14.9166 32.9096 5.84326 40.094 5.84326C47.2784 5.84326 52.9082 14.9166 52.9082 26.5C52.9082 38.0835 47.2784 47.1568 40.094 47.1568ZM40.094 8.05159C34.2463 8.05159 29.4896 16.3284 29.4896 26.5C29.4896 36.6731 34.2463 44.9484 40.094 44.9484C45.9417 44.9484 50.6999 36.6731 50.6999 26.5C50.6999 16.327 45.9417 8.05159 40.094 8.05159Z" fill="#E1E8ED"/>
<path d="M36.8042 33.8022C40.8371 33.8022 44.1064 30.5329 44.1064 26.5C44.1064 22.4671 40.8371 19.1978 36.8042 19.1978C32.7713 19.1978 29.502 22.4671 29.502 26.5C29.502 30.5329 32.7713 33.8022 36.8042 33.8022Z" fill="#8899A6"/>
<path d="M36.8051 31.7484C39.7038 31.7484 42.0536 29.3986 42.0536 26.4999C42.0536 23.6013 39.7038 21.2515 36.8051 21.2515C33.9065 21.2515 31.5566 23.6013 31.5566 26.4999C31.5566 29.3986 33.9065 31.7484 36.8051 31.7484Z" fill="#292F33"/>
<path d="M38.7439 24.835C39.9034 24.835 40.8433 23.8951 40.8433 22.7356C40.8433 21.5762 39.9034 20.6362 38.7439 20.6362C37.5845 20.6362 36.6445 21.5762 36.6445 22.7356C36.6445 23.8951 37.5845 24.835 38.7439 24.835Z" fill="#F5F8FA"/>
</svg>
